<svg width="136" height="158" fill="none" xmlns="http://www.w3.org/2000/svg"><path d="M134.155 115.698c-4.776-4.998-12.571-8.803-21.875-10.502-6.389 8.475-15.005 14.824-24.678 18.501-12.104 4.599-25.858 5.019-38.962.194-10.407-3.833-18.981-10.449-25.19-18.696-9.307 1.699-17.104 5.504-21.88 10.503 4.963 5.195 13.188 9.102 22.98 10.695l.001-.001c-5.072 5.322-6.33 11.611-3.772 17.414 9.79 1.583 20.42.754 29.326-2.488 2.565 6.029 9.07 11.099 17.758 14.144 8.686-3.045 15.192-8.115 17.757-14.144 8.906 3.242 19.535 4.071 29.326 2.488 2.557-5.802 1.3-12.092-3.772-17.413 9.792-1.593 18.017-5.5 22.981-10.695Z" fill="#F7E8E6"/><path d="M120.065 90.91c-5.79 15.726-17.938 27.267-32.463 32.787a27.681 27.681 0 0 0 8.538-11.956c5.309-14.416-2.075-30.405-16.49-35.713l-11.788-4.34-11.787-4.34c-14.416-5.309-21.8-21.298-16.491-35.713a27.678 27.678 0 0 1 8.538-11.956c12.104-4.6 25.858-5.02 38.962-.194 28.831 10.616 43.597 42.594 32.981 71.425Z" fill="#fff"/><path d="M15.659 52.466c5.79-15.727 17.938-27.267 32.463-32.787a27.678 27.678 0 0 0-8.538 11.956c-5.308 14.415 2.075 30.404 16.49 35.712l11.788 4.34 11.788 4.34c14.415 5.309 21.798 21.298 16.49 35.713a27.676 27.676 0 0 1-8.538 11.956c-12.104 4.6-25.858 5.02-38.962.194-28.831-10.615-43.597-42.594-32.981-71.424Z" fill="#DEC1B4"/><path d="M67.862 51.035a9.186 9.186 0 1 0 0-18.373 9.186 9.186 0 0 0 0 18.373Z" fill="#DEC1B4"/><path d="M67.862 110.714a9.187 9.187 0 0 0 9.186-9.187 9.186 9.186 0 0 0-18.372 0 9.187 9.187 0 0 0 9.186 9.187Z" fill="#fff"/><path d="M62.732 5.13c0-.867.703-1.57 1.57-1.57h1.99V1.57a1.57 1.57 0 0 1 3.14 0v1.99h1.99a1.57 1.57 0 0 1 0 3.14h-1.99v1.99a1.57 1.57 0 0 1-3.14 0V6.7h-1.99a1.57 1.57 0 0 1-1.57-1.57ZM3.48 101.233h1.99v1.99a1.57 1.57 0 0 0 3.14 0v-1.99h1.99a1.57 1.57 0 1 0 0-3.14H8.61v-1.99a1.57 1.57 0 0 0-3.14 0v1.99H3.48a1.57 1.57 0 0 0 0 3.14Zm120.077-1.57c0 .867.703 1.57 1.57 1.57h1.989v1.99a1.571 1.571 0 0 0 3.141 0v-1.99h1.989a1.57 1.57 0 0 0 0-3.14h-1.989v-1.99a1.57 1.57 0 0 0-3.141 0v1.99h-1.989a1.57 1.57 0 0 0-1.57 1.57Zm11.734 14.95c-3.987-4.173-9.832-7.484-16.902-9.576a1.57 1.57 0 0 0-.891 3.012c5.906 1.747 10.852 4.376 14.414 7.648-4.708 4.31-11.941 7.539-20.2 9.006a27.405 27.405 0 0 0-1.495-1.365l-.046-.038a24.41 24.41 0 0 0-.737-.603l-.102-.079a28.699 28.699 0 0 0-.709-.542c-.046-.035-.093-.068-.141-.102l-.073-.053c-.209-.152-.418-.304-.634-.453-.094-.065-.19-.129-.286-.192l-.24-.161c-.121-.082-.242-.164-.365-.244a39.343 39.343 0 0 0-.934-.585 1.571 1.571 0 0 0-1.626 2.687c.29.176.574.354.854.535.105.069.207.138.31.208l.265.177c.078.052.157.104.234.157.196.136.385.273.574.411l.194.139c.217.161.429.324.637.488l.092.07c.226.179.445.359.656.537l.034.028a24.33 24.33 0 0 1 1.865 1.754c4.356 4.57 5.685 9.836 3.79 14.913-8.838 1.289-18.241.553-26.186-2.036 1.172-3.791.927-7.884-.724-11.46a1.57 1.57 0 1 0-2.852 1.317c1.491 3.227 1.531 7.15.109 10.493-2.295 5.395-8.225 10.147-16.312 13.091-8.089-2.944-14.018-7.696-16.313-13.091a12.986 12.986 0 0 1-1.045-5.637c.072-1.832.614-3.462 1.19-4.95a1.57 1.57 0 0 0-2.93-1.132c-.64 1.658-1.307 3.662-1.398 5.957a16.258 16.258 0 0 0 .718 5.411c-7.944 2.589-17.35 3.326-26.188 2.037-1.895-5.077-.566-10.343 3.791-14.914a24.09 24.09 0 0 1 1.858-1.748l.037-.03a26.1 26.1 0 0 1 .66-.54l.025-.02.065-.05c.209-.163.42-.327.638-.487l.194-.139c.189-.138.378-.276.574-.411.076-.053.155-.105.234-.157l.265-.178c.102-.069.205-.139.311-.207.279-.181.563-.359.854-.535a1.571 1.571 0 0 0-1.627-2.687c-.318.193-.628.388-.933.584-.124.081-.245.163-.366.244l-.24.161c-.096.064-.192.128-.285.193-.216.149-.426.301-.634.453l-.074.052-.14.102c-.243.179-.478.36-.734.561l-.076.059c-.252.199-.497.4-.73.597l-.043.035c-.526.445-1.029.906-1.506 1.375-8.26-1.467-15.493-4.695-20.2-9.006 3.528-3.241 8.418-5.855 14.249-7.603a1.57 1.57 0 0 0-.902-3.009c-6.988 2.096-12.773 5.39-16.727 9.528a1.57 1.57 0 0 0 0 2.17c4.831 5.055 12.282 8.791 21.175 10.659-3.924 5.256-4.767 11.325-2.268 16.998a1.57 1.57 0 0 0 1.187.917c3.285.531 6.656.792 10.018.792 6.516 0 12.996-.983 18.748-2.889 3.032 5.756 9.514 10.693 18.049 13.684a1.568 1.568 0 0 0 1.039 0c8.535-2.991 15.016-7.928 18.049-13.684 5.752 1.906 12.23 2.889 18.747 2.889a62.98 62.98 0 0 0 10.018-.792c.525-.085.972-.43 1.187-.917 2.499-5.673 1.657-11.742-2.267-16.998 8.893-1.867 16.343-5.604 21.175-10.659a1.573 1.573 0 0 0-.002-2.17Zm-87.193 10.751a57.168 57.168 0 0 0 19.77 3.536c4.106 0 8.22-.445 12.272-1.34a1.57 1.57 0 0 0-.677-3.067c-10.079 2.225-20.549 1.507-30.28-2.076-27.972-10.3-42.35-41.437-32.05-69.409A54.048 54.048 0 0 1 41.57 24.456c-.064.09-.123.184-.185.275a28.301 28.301 0 0 0-.527.803 23.538 23.538 0 0 0-.502.824c-.074.125-.148.25-.22.375a42.39 42.39 0 0 0-.257.467c-.068.125-.137.25-.203.375-.085.162-.166.325-.248.488-.062.124-.126.246-.186.37-.084.173-.163.348-.244.522-.053.117-.109.233-.161.35-.088.197-.17.396-.254.595-.04.098-.083.194-.123.292a29.77 29.77 0 0 0-.35.9c-2.711 7.366-2.393 15.347.898 22.473 3.29 7.126 9.159 12.544 16.524 15.256l23.575 8.681c6.579 2.422 11.82 7.262 14.759 13.626s3.223 13.492.8 20.07a26.207 26.207 0 0 1-8.054 11.28c-.08.065-.15.137-.214.213-.023.027-.04.057-.06.085a1.537 1.537 0 0 0-.105.157c-.02.035-.035.072-.052.109a1.482 1.482 0 0 0-.064.156 1.585 1.585 0 0 0-.033.118 1.492 1.492 0 0 0-.006.736c.01.042.02.083.032.124.017.053.04.104.063.155.017.039.033.079.054.118.006.01.01.021.015.031.04.07.085.134.134.195l.007.012c.008.009.017.015.024.024.054.062.111.12.173.173l.047.041a1.6 1.6 0 0 0 .221.147l.057.028c.065.032.133.06.203.083l.059.02c.084.025.17.042.259.052.016.002.033.002.05.003.042.004.084.008.127.008.025 0 .05-.005.075-.006a1.438 1.438 0 0 0 .285-.042c.046-.01.09-.022.135-.037.02-.007.041-.009.062-.017a57.209 57.209 0 0 0 33.379-33.712c10.898-29.597-4.315-62.543-33.912-73.441-10.606-3.905-22-4.593-32.951-1.988a1.57 1.57 0 1 0 .727 3.055c10.347-2.46 21.115-1.811 31.138 1.88 13.551 4.99 24.347 14.957 30.4 28.066 6.053 13.11 6.639 27.792 1.65 41.343a54.044 54.044 0 0 1-24.436 28.552c.063-.091.123-.184.185-.275.082-.122.165-.243.246-.366.096-.147.19-.295.284-.444.077-.121.154-.242.229-.364.094-.153.184-.307.275-.462.07-.121.143-.242.212-.364.091-.159.178-.321.266-.482.065-.12.131-.239.195-.359.088-.169.173-.339.258-.509.059-.116.119-.232.175-.35.087-.179.17-.36.253-.541.05-.111.104-.22.154-.332.09-.201.174-.405.259-.608.039-.094.08-.186.118-.279.121-.299.238-.599.35-.902 2.712-7.365 2.393-15.346-.897-22.472-3.29-7.126-9.16-12.544-16.525-15.256l-23.575-8.681c-6.579-2.423-11.82-7.262-14.759-13.626s-3.223-13.492-.8-20.07a26.25 26.25 0 0 1 1.855-3.978 26.167 26.167 0 0 1 6.2-7.303l.007-.007c.076-.063.145-.132.206-.205.023-.028.041-.058.062-.086.037-.051.073-.102.104-.156.02-.035.034-.072.051-.109a1.44 1.44 0 0 0 .065-.157 1.634 1.634 0 0 0 .077-.402 1.558 1.558 0 0 0-.04-.453c-.009-.04-.018-.082-.03-.122a1.55 1.55 0 0 0-.064-.157c-.017-.039-.033-.078-.053-.116-.006-.01-.01-.022-.015-.032-.03-.05-.065-.093-.098-.14-.016-.021-.027-.045-.044-.066l-.01-.01a1.58 1.58 0 0 0-.212-.213c-.013-.01-.027-.017-.04-.027a1.57 1.57 0 0 0-.202-.135c-.032-.018-.067-.03-.1-.046a1.653 1.653 0 0 0-.166-.068c-.037-.013-.075-.02-.112-.03a1.532 1.532 0 0 0-.287-.043 1.63 1.63 0 0 0-.294.01 1.467 1.467 0 0 0-.291.067c-.02.007-.042.01-.063.017a57.21 57.21 0 0 0-33.378 33.713C3.287 81.52 18.5 114.466 48.097 125.364Zm19.765-72.759c-5.931 0-10.757-4.825-10.757-10.757 0-5.931 4.826-10.756 10.757-10.756S78.62 35.917 78.62 41.848c0 5.932-4.826 10.757-10.757 10.757Zm0-3.14c4.2 0 7.616-3.417 7.616-7.617s-3.416-7.616-7.616-7.616c-4.2 0-7.616 3.417-7.616 7.616 0 4.2 3.416 7.616 7.616 7.616Zm0 41.305c5.931 0 10.757 4.826 10.757 10.757s-4.826 10.757-10.757 10.757-10.757-4.826-10.757-10.757S61.931 90.77 67.862 90.77Zm0 3.141c-4.2 0-7.616 3.416-7.616 7.616 0 4.2 3.416 7.616 7.616 7.616 4.2 0 7.616-3.416 7.616-7.616 0-4.2-3.416-7.616-7.616-7.616Z" fill="#2D2424"/></svg>