<svg width="147" height="158" fill="none" xmlns="http://www.w3.org/2000/svg"><path d="m35.912 135.231 11.034-10.59-10.51-10.511-10.123 7.808 9.6 13.293Zm75.013 0-11.034-10.59 10.51-10.511 10.123 7.808-9.599 13.293Z" fill="#fff"/><path d="M57.963 116.017 45.75 103.805a2.403 2.403 0 0 0-3.4 0l-1.51 1.511a2.403 2.403 0 0 0 0 3.399 2.403 2.403 0 0 0-3.399 0l-1.51 1.51a2.403 2.403 0 0 0 0 3.399l12.211 12.212c.939.939 2.46.939 3.4 0l1.51-1.511a2.403 2.403 0 0 0 0-3.399c.939.939 2.46.939 3.399 0l1.51-1.51a2.403 2.403 0 0 0 0-3.399Zm52.943-5.791-1.51-1.511a2.403 2.403 0 0 0-3.399 0 2.405 2.405 0 0 0 0-3.399l-1.511-1.511a2.405 2.405 0 0 0-3.399 0l-12.212 12.212a2.403 2.403 0 0 0 0 3.399l1.51 1.511c.94.939 2.461.939 3.4 0a2.403 2.403 0 0 0 0 3.399l1.51 1.511c.94.938 2.461.938 3.4 0l12.211-12.212a2.403 2.403 0 0 0 0-3.399Z" fill="#F6E8E6"/><path d="M91.85 99.259a6.791 6.791 0 0 1-2.263-7.236l.767-2.578a31.624 31.624 0 0 0-1.316-21.638l-9.465-21.743a4.721 4.721 0 0 0-4.329-2.836h-3.651a4.72 4.72 0 0 0-4.328 2.836L57.8 67.807a31.623 31.623 0 0 0-1.316 21.638l.767 2.578a6.792 6.792 0 0 1-2.263 7.236l-7.653 6.13 9.393 9.393 12.89-12.891a12.976 12.976 0 0 0 3.8-9.176c0 3.442 1.368 6.743 3.801 9.176l12.89 12.891 9.394-9.393-7.653-6.13Z" fill="#fff"/><path d="m90.11 114.782-12.89-12.891a12.975 12.975 0 0 1-3.801-9.176c0 3.442-1.367 6.743-3.801 9.176l-12.89 12.891 1.234 1.235c.924.924.936 2.412.041 3.353a48.395 48.395 0 0 0 15.415 2.505 48.39 48.39 0 0 0 15.415-2.505 2.401 2.401 0 0 1 .041-3.353l1.236-1.235Z" fill="#DEC1B4"/><path d="M73.419 24.962c-26.762 0-48.457 21.695-48.457 48.457 0 13.567 5.578 25.83 14.563 34.625a2.4 2.4 0 0 1 1.316.671 2.403 2.403 0 0 1 0-3.399l1.51-1.511a2.403 2.403 0 0 1 3.4 0l1.583 1.584 7.653-6.13a6.791 6.791 0 0 0 2.263-7.236l-.767-2.578A31.624 31.624 0 0 1 57.8 67.808l9.465-21.744a4.721 4.721 0 0 1 4.328-2.836h3.652a4.721 4.721 0 0 1 4.328 2.836l9.466 21.744a31.623 31.623 0 0 1 1.316 21.637l-.767 2.578a6.792 6.792 0 0 0 2.263 7.236l7.652 6.13 1.584-1.584a2.404 2.404 0 0 1 3.4 0l1.51 1.511c.939.939.939 2.46 0 3.399a2.393 2.393 0 0 1 1.316-.671c8.985-8.796 14.563-21.058 14.563-34.625.001-26.762-21.694-48.457-48.456-48.457Z" fill="#DEC1B4"/><path d="M78.549 142.518a1.57 1.57 0 0 1-1.57 1.57h-1.99v1.99a1.57 1.57 0 0 1-3.14 0v-1.99h-1.99a1.57 1.57 0 1 1 0-3.14h1.99v-1.99a1.57 1.57 0 0 1 3.14 0v1.99h1.99c.866 0 1.57.703 1.57 1.57Zm52.795-36.793h-1.989v-1.989a1.57 1.57 0 1 0-3.141 0v1.989h-1.989a1.57 1.57 0 0 0 0 3.14h1.989v1.99a1.571 1.571 0 0 0 3.141 0v-1.99h1.989a1.57 1.57 0 0 0 0-3.14Zm-108.731 0h-1.99v-1.989a1.57 1.57 0 1 0-3.14 0v1.989h-1.99a1.57 1.57 0 0 0 0 3.14h1.99v1.99a1.57 1.57 0 0 0 3.14 0v-1.99h1.99a1.57 1.57 0 0 0 0-3.14Zm60.867 13.497a47.51 47.51 0 0 1-20.027.021 1.57 1.57 0 1 0-.664 3.069 50.304 50.304 0 0 0 10.63 1.133 50.35 50.35 0 0 0 10.732-1.155 1.57 1.57 0 1 0-.671-3.068Zm-50.406-16.228a1.57 1.57 0 1 0 2.53-1.859c-5.934-8.082-9.072-17.666-9.072-27.717 0-25.853 21.033-46.886 46.887-46.886 25.853 0 46.886 21.033 46.886 46.886 0 10.051-3.137 19.635-9.072 27.717a1.569 1.569 0 0 0 1.264 2.5c.483 0 .959-.222 1.267-.641 6.334-8.625 9.682-18.852 9.682-29.576 0-27.585-22.442-50.027-50.027-50.027S23.392 45.834 23.392 73.418c0 10.724 3.348 20.951 9.682 29.576Zm2.838 49.492c-.867 0-1.57.704-1.57 1.571v1.405a1.57 1.57 0 0 0 3.14 0v-1.405c0-.867-.703-1.571-1.57-1.571Zm75.013 0c-.867 0-1.57.704-1.57 1.571v1.405a1.57 1.57 0 0 0 3.14 0v-1.405a1.57 1.57 0 0 0-1.57-1.571Zm10.843-29.588a1.571 1.571 0 0 1-2.203.284l-9.03-6.965-8.401 8.401 9.42 9.04a3.08 3.08 0 0 1 .941 2.209v13.352a1.57 1.57 0 0 1-3.14 0v-13.318l-9.442-9.062-.108.108a3.946 3.946 0 0 1-2.81 1.164 3.946 3.946 0 0 1-2.81-1.164l-1.51-1.511a3.948 3.948 0 0 1-1.123-2.277 3.948 3.948 0 0 1-2.277-1.122l-1.51-1.511a3.978 3.978 0 0 1 0-5.62l.124-.125-11.78-11.78a14.596 14.596 0 0 1-2.69-3.696 14.603 14.603 0 0 1-2.69 3.696l-11.78 11.78.125.125a3.978 3.978 0 0 1 0 5.62l-1.511 1.51a3.957 3.957 0 0 1-2.277 1.123 3.947 3.947 0 0 1-1.122 2.277l-1.511 1.51a3.946 3.946 0 0 1-2.81 1.164 3.946 3.946 0 0 1-2.81-1.164l-.108-.108-9.442 9.062v13.318a1.57 1.57 0 0 1-3.14 0v-13.352c0-.829.342-1.634.94-2.208l9.42-9.041-5.722-5.723-2.678-2.677-9.03 6.964a1.57 1.57 0 1 1-1.918-2.487l8.825-6.807a3.977 3.977 0 0 1 .64-4.772l1.512-1.511a3.95 3.95 0 0 1 2.277-1.123 3.948 3.948 0 0 1 1.122-2.277l1.51-1.511a3.98 3.98 0 0 1 5.62 0l.59.59 6.555-5.25a5.201 5.201 0 0 0 1.74-5.564l-.767-2.577a33.242 33.242 0 0 1 1.382-22.712l9.465-21.744a6.29 6.29 0 0 1 5.768-3.78h3.651a6.29 6.29 0 0 1 5.768 3.78L90.48 67.18a33.242 33.242 0 0 1 1.381 22.712l-.766 2.578a5.2 5.2 0 0 0 1.74 5.563l6.554 5.251.59-.59a3.98 3.98 0 0 1 5.62 0l1.51 1.511a3.944 3.944 0 0 1 1.122 2.277 3.944 3.944 0 0 1 2.277 1.122l1.511 1.511a3.977 3.977 0 0 1 .641 4.773l8.826 6.807c.685.53.812 1.516.283 2.203Zm-69.826-.861L39.73 109.825a.83.83 0 0 0-1.178 0l-1.511 1.511a.834.834 0 0 0 0 1.178l.505.505v.001l5.601 5.6 6.106 6.106a.852.852 0 0 0 1.178 0l1.511-1.511a.834.834 0 0 0 0-1.178Zm4.91-4.91L44.64 104.915a.832.832 0 0 0-1.178 0l-1.51 1.511a.835.835 0 0 0 0 1.179l12.21 12.211a.853.853 0 0 0 1.18 0l1.51-1.51a.835.835 0 0 0 0-1.179Zm33.258-4.566 7.043-7.043-6.284-5.034a8.329 8.329 0 0 1-2.787-8.909l.767-2.578a30.097 30.097 0 0 0-1.25-20.563l-9.466-21.743a3.15 3.15 0 0 0-2.889-1.893h-3.65a3.15 3.15 0 0 0-2.89 1.893L59.24 68.434a30.098 30.098 0 0 0-1.25 20.564l.766 2.577a8.329 8.329 0 0 1-2.786 8.909l-6.284 5.034 7.043 7.043 11.78-11.78a11.331 11.331 0 0 0 3.34-8.065v-20.17a2 2 0 0 0-1.998-2 2.001 2.001 0 0 0-2 2v9.405a5.786 5.786 0 0 1-1.705 4.119l-1.41 1.41a1.57 1.57 0 1 1-2.22-2.22l1.41-1.411a2.667 2.667 0 0 0 .786-1.898v-9.406a5.146 5.146 0 0 1 5.139-5.14c.71 0 1.384.147 1.999.407V53.524a1.57 1.57 0 0 1 3.14 0v14.288a5.108 5.108 0 0 1 2-.406 5.145 5.145 0 0 1 5.139 5.14v9.405c0 .717.28 1.391.786 1.898l1.41 1.41a1.57 1.57 0 1 1-2.22 2.221l-1.411-1.41a5.787 5.787 0 0 1-1.706-4.119v-9.405a2.001 2.001 0 0 0-1.999-2 2.001 2.001 0 0 0-1.999 2v20.17a11.33 11.33 0 0 0 3.341 8.065l11.78 11.78Zm1.386 7.255a.853.853 0 0 0 1.178 0l12.212-12.211a.835.835 0 0 0 0-1.179l-1.51-1.511a.835.835 0 0 0-1.179 0l-12.212 12.212a.834.834 0 0 0 0 1.178l1.511 1.511Zm6.088 4.91 12.212-12.211a.835.835 0 0 0 0-1.179l-1.511-1.51a.852.852 0 0 0-1.178 0l-12.212 12.211a.835.835 0 0 0 0 1.179l1.511 1.51a.852.852 0 0 0 1.178 0ZM73.42 46.283a1.57 1.57 0 0 0-1.57 1.57v1.04a1.57 1.57 0 0 0 3.14 0v-1.04a1.57 1.57 0 0 0-1.57-1.57Zm0-25.662a1.57 1.57 0 0 0 1.57-1.57V9.062a1.57 1.57 0 0 0-3.14 0v9.99c0 .866.703 1.57 1.57 1.57Zm0-16.336a1.57 1.57 0 0 0 1.57-1.57V1.57a1.57 1.57 0 0 0-3.14 0v1.145c0 .867.703 1.57 1.57 1.57Zm38.443 32.26c.402 0 .804-.153 1.111-.46l7.063-7.063a1.57 1.57 0 0 0-2.221-2.22l-7.063 7.063a1.57 1.57 0 0 0 1.11 2.68Zm11.552-11.551c.402 0 .804-.153 1.11-.46l.81-.81a1.57 1.57 0 0 0-2.221-2.22l-.809.81a1.57 1.57 0 0 0 1.11 2.68Zm14.361 46.854h-9.989a1.57 1.57 0 0 0 0 3.14h9.989a1.57 1.57 0 0 0 0-3.14Zm7.492 0h-1.145a1.57 1.57 0 0 0 0 3.14h1.145a1.57 1.57 0 0 0 0-3.14Zm-124.645 1.57a1.57 1.57 0 0 0-1.57-1.57h-9.99a1.57 1.57 0 0 0 0 3.14h9.99a1.57 1.57 0 0 0 1.57-1.57Zm-17.907-1.57H1.57a1.57 1.57 0 0 0 0 3.14h1.145a1.57 1.57 0 0 0 0-3.14Zm31.15-35.763c.307.307.708.46 1.11.46a1.57 1.57 0 0 0 1.11-2.68L29.024 26.8a1.57 1.57 0 0 0-2.221 2.22l7.063 7.064ZM22.313 24.534c.307.307.709.46 1.11.46a1.57 1.57 0 0 0 1.11-2.68l-.808-.81a1.57 1.57 0 0 0-2.221 2.22l.81.81Z" fill="#2D2424"/></svg>