<svg width="139" height="158" fill="none" xmlns="http://www.w3.org/2000/svg"><path d="M26.164 61.642c4.486-19.537 22.015-34.154 42.894-34.154 20.88 0 38.409 14.617 42.895 34.155h7.26c-4.593-23.51-25.3-41.254-50.155-41.254-24.854 0-45.561 17.743-50.154 41.254h7.26Z" fill="#fff"/><path d="M40.93 61.643c4.077-11.61 15.143-19.957 28.128-19.957s24.051 8.348 28.13 19.957h7.441c-4.321-15.583-18.63-27.056-35.57-27.056-16.941 0-31.25 11.473-35.572 27.056h7.442Z" fill="#DEC1B4"/><path d="M33.487 61.642C37.81 46.06 52.118 34.587 69.058 34.587c16.94 0 31.25 11.473 35.571 27.055h7.324c-4.486-19.537-22.015-34.154-42.895-34.154-20.88 0-38.408 14.617-42.895 34.155h7.324Zm-3.509 46.937a16.972 16.972 0 0 1-2.256-2.796l-9.115 9.114c-.02-.021-.038-.045-.06-.066a4.568 4.568 0 0 0-6.46 6.46 4.556 4.556 0 0 0 3.894 1.284 4.558 4.558 0 0 0 1.285 3.894 4.569 4.569 0 0 0 6.46-6.461c-.021-.021-.045-.038-.066-.059l9.114-9.115a16.876 16.876 0 0 1-2.796-2.255Z" fill="#F6E8E6"/><path d="M51.175 102.785c2.291 0 4.394.791 6.064 2.108v-.001a12.022 12.022 0 0 1-.21-2.2c0-6.578 5.286-11.918 11.842-12.011 1.69-5.742.271-12.205-4.26-16.736-6.598-6.599-17.297-6.599-23.896 0L29.978 84.681c-6.599 6.6-6.599 17.298 0 23.898a16.839 16.839 0 0 0 11.432 4.937 9.867 9.867 0 0 1-.047-.919c0-5.419 4.393-9.812 9.812-9.812Zm76.643 14.239a11.562 11.562 0 0 0 2.621-7.332v-8.218a11.564 11.564 0 0 0-17.4-9.983l-4.18 2.444-4.18-2.444a11.564 11.564 0 0 0-17.4 9.983v1.319c5.262.177 9.475 4.497 9.475 9.803a9.765 9.765 0 0 1-1.772 5.622l.032-.001c5.344 0 9.688 4.274 9.806 9.59h14.155l.017-.02 8.826-10.763Z" fill="#fff"/><path d="M118.907 83.896c4.571-1.69 7.484-5.201 6.508-7.84-.977-2.64-5.474-3.409-10.044-1.718-4.571 1.691-7.485 5.202-6.508 7.841.976 2.64 5.473 3.408 10.044 1.717Z" fill="#DEC1B4"/><path d="M1.57 127.807c0 9.188 7.45 16.637 16.637 16.637H34.51c-5.737.4-10.268 5.178-10.268 11.017h89.633c0-5.839-4.531-10.617-10.268-11.017h16.303c9.188 0 16.637-7.449 16.637-16.637H1.57Z" fill="#F6E8E6"/><path d="M33.296 127.807H69.05c-.004-.061-.009-.122-.012-.184a5.5 5.5 0 0 0 .012.184h35.771c-.118-5.316-4.462-9.59-9.806-9.59h-.032a9.763 9.763 0 0 0 1.772-5.621c0-5.419-4.393-9.812-9.812-9.812a9.767 9.767 0 0 0-6.097 2.133c.136-.722.215-1.464.215-2.225 0-6.636-5.38-12.016-12.016-12.016s-12.015 5.38-12.015 12.016c0 .753.077 1.486.21 2.2a9.762 9.762 0 0 0-6.064-2.108c-5.42 0-9.812 4.393-9.812 9.812 0 2.092.656 4.029 1.772 5.621h-.032c-5.345 0-9.688 4.274-9.807 9.59Z" fill="#DEC1B4"/><path d="M4.907 155.462a1.57 1.57 0 0 1-1.57 1.57H1.57a1.57 1.57 0 1 1 0-3.141h1.766c.868 0 1.57.703 1.57 1.571Zm131.639-1.571h-1.766a1.57 1.57 0 0 0 0 3.141h1.766a1.57 1.57 0 1 0 0-3.141ZM65.611 6.587h1.877v1.877a1.57 1.57 0 1 0 3.14 0V6.587h1.877a1.57 1.57 0 1 0 0-3.14H70.63V1.57a1.57 1.57 0 1 0-3.141 0v1.877H65.61a1.57 1.57 0 1 0 0 3.14Zm48.726 26.063h1.876v1.876a1.57 1.57 0 0 0 3.141 0V32.65h1.876a1.57 1.57 0 1 0 0-3.14h-1.876v-1.877a1.57 1.57 0 1 0-3.141 0v1.876h-1.876a1.57 1.57 0 1 0 0 3.14Zm-97.45 0h1.876v1.876a1.57 1.57 0 1 0 3.14 0V32.65h1.877a1.57 1.57 0 1 0 0-3.14h-1.877v-1.877a1.57 1.57 0 1 0-3.14 0v1.876h-1.877a1.57 1.57 0 1 0 0 3.14Zm76.803 84.676-2.24 2.977a1.57 1.57 0 1 0 2.51 1.888l1.782-2.368a8.193 8.193 0 0 1 6.248 3.832 1.569 1.569 0 0 0 2.165.494 1.57 1.57 0 0 0 .495-2.165 11.33 11.33 0 0 0-7.174-5.071 11.32 11.32 0 0 0 .848-4.316c0-6.276-5.106-11.382-11.382-11.382a11.32 11.32 0 0 0-4.328.857c-.327-7.204-6.288-12.965-13.57-12.965-7.28 0-13.239 5.755-13.57 12.953a11.332 11.332 0 0 0-4.3-.845c-6.276 0-11.382 5.106-11.382 11.382 0 1.497.289 2.957.848 4.316a11.33 11.33 0 0 0-7.174 5.071 1.57 1.57 0 0 0 2.66 1.671 8.19 8.19 0 0 1 6.22-3.831l1.78 2.367a1.567 1.567 0 0 0 2.2.31 1.569 1.569 0 0 0 .31-2.198l-2.102-2.794a1.569 1.569 0 0 0-.115-.192 8.186 8.186 0 0 1-1.487-4.72c0-4.545 3.697-8.242 8.241-8.242a8.2 8.2 0 0 1 5.076 1.756l.016.015a8.38 8.38 0 0 1 1.32 1.301l.057.072a10.52 10.52 0 0 1 .295.398 7.848 7.848 0 0 1 .252.38c.032.052.062.105.093.157.043.073.087.147.128.223l.052.098c.159.3.3.611.421.932.012.031.025.062.036.094.032.088.062.176.09.266.016.049.033.097.048.146a9.284 9.284 0 0 1 .21.86 5.521 5.521 0 0 1 .073.446c.01.071.02.141.027.212.009.083.015.166.02.249.006.064.012.128.016.193.006.112.008.224.01.337l.002.106c0 1.194-.26 2.354-.748 3.42a8.22 8.22 0 0 1-.74 1.3l-.005.008-2.24 2.978a1.57 1.57 0 0 0 2.51 1.888l1.783-2.37a8.218 8.218 0 0 1 4.635 1.964 1.57 1.57 0 1 0 2.053-2.378 11.366 11.366 0 0 0-4.957-2.49c.026-.063.048-.127.073-.191l.062-.161c.086-.23.166-.462.237-.697l.005-.018a11.319 11.319 0 0 0 .218-.865 11.376 11.376 0 0 0 .227-1.638c.017-.249.028-.499.028-.75 0-.086-.005-.17-.007-.255-.002-.113-.003-.226-.009-.338-.005-.107-.016-.214-.024-.321-.008-.089-.013-.178-.022-.267-.012-.12-.03-.239-.045-.359-.01-.072-.018-.146-.03-.218-.02-.131-.045-.26-.07-.39-.01-.058-.02-.117-.032-.175a11.28 11.28 0 0 0-.097-.416c-.01-.045-.02-.09-.032-.135a12.966 12.966 0 0 0-.125-.439l-.03-.098c-.048-.154-.1-.306-.155-.458l-.024-.066a10.793 10.793 0 0 0-.418-.988l-.009-.017a11.285 11.285 0 0 0-1.614-2.458c-.078-.091-.154-.182-.235-.27-.024-.026-.05-.051-.074-.078a12.95 12.95 0 0 0-.352-.363l-.035-.033a11.7 11.7 0 0 0-.422-.391l-.001-.001c-.064-.468-.096-.92-.096-1.37 0-5.76 4.686-10.445 10.445-10.445 5.76 0 10.446 4.685 10.446 10.445 0 .459-.033.92-.1 1.397l-.014.013c-.127.114-.252.231-.374.351l-.07.065a12.08 12.08 0 0 0-.31.322 11.33 11.33 0 0 0-1.406 1.85l-.008.012c-.09.15-.178.303-.263.457l-.014.027a11.433 11.433 0 0 0-.462.955l-.028.067c-.061.147-.12.295-.175.444l-.035.098c-.05.141-.1.283-.145.427l-.04.134c-.04.135-.08.269-.115.405-.016.059-.029.118-.043.177-.03.124-.06.249-.087.375-.016.075-.028.151-.043.227-.02.112-.042.224-.06.338-.015.094-.026.19-.038.285-.012.097-.027.194-.037.292-.012.12-.02.242-.029.363-.005.075-.013.15-.017.226a11.351 11.351 0 0 0 .103 2.244 11.38 11.38 0 0 0 .134.737l.04.177c.052.23.11.457.177.683l.008.029c.07.232.15.462.234.69l.066.173c.025.061.046.124.072.185a11.345 11.345 0 0 0-4.958 2.49 1.571 1.571 0 0 0 2.053 2.377 8.221 8.221 0 0 1 4.608-1.962l1.782 2.368a1.567 1.567 0 0 0 2.198.311 1.57 1.57 0 0 0 .311-2.199l-2.101-2.793a1.622 1.622 0 0 0-.115-.193 8.184 8.184 0 0 1-1.475-5.168c.003-.051.008-.1.012-.15.006-.098.014-.196.024-.293l.023-.181a8.322 8.322 0 0 1 .072-.452 7.525 7.525 0 0 1 .211-.865l.056-.175c.027-.08.053-.161.081-.239l.053-.138a8.09 8.09 0 0 1 .418-.918l.038-.074a7.29 7.29 0 0 1 .133-.231l.085-.144c.041-.066.084-.131.126-.196a9.15 9.15 0 0 1 .118-.176l.115-.161c.053-.072.107-.145.163-.216l.088-.113c.085-.104.17-.206.26-.307l.01-.011c.31-.346.652-.668 1.023-.963.004-.002.006-.006.01-.009a8.198 8.198 0 0 1 5.11-1.783c4.545 0 8.242 3.697 8.242 8.242 0 1.698-.514 3.33-1.488 4.72l-.005.011Zm32.721-42.481c.433.358.642.921.546 1.475a11.804 11.804 0 0 1-7.51 9.047 11.706 11.706 0 0 1-4.063.726 11.84 11.84 0 0 1-4.955-1.088v6.193l1.816-1.062c5.036-2.944 11.292-2.255 15.567 1.714a13.177 13.177 0 0 1 4.197 9.625v8.217c0 3.029-1.058 5.986-2.978 8.328l-4.242 5.174a1.566 1.566 0 0 1-2.21.219 1.57 1.57 0 0 1-.219-2.21l4.243-5.174a10.021 10.021 0 0 0 2.265-6.337v-8.217c0-2.77-1.163-5.438-3.193-7.323a9.936 9.936 0 0 0-11.844-1.304l-4.18 2.443a1.63 1.63 0 0 1-.16.08l-.027.013a1.55 1.55 0 0 1-.326.094 1.568 1.568 0 0 1-.629-.014 1.58 1.58 0 0 1-.257-.08c-.009-.004-.017-.01-.027-.013a1.614 1.614 0 0 1-.159-.08l-4.18-2.443a9.937 9.937 0 0 0-11.845 1.304c-.984.915-1.763 2-2.315 3.226a1.571 1.571 0 0 1-2.864-1.288 13.066 13.066 0 0 1 3.043-4.24c4.274-3.97 10.53-4.658 15.566-1.714l1.817 1.062V72.903a1.57 1.57 0 1 1 3.141 0v2.849a11.719 11.719 0 0 1 4.392-2.887 11.803 11.803 0 0 1 11.59 1.98Zm-10.5.965a8.651 8.651 0 0 0-5.295 5.717 8.653 8.653 0 0 0 7.741.895 8.653 8.653 0 0 0 5.295-5.718 8.65 8.65 0 0 0-7.741-.894Zm-66.897 3.192-.673.672a1.57 1.57 0 1 0 2.22 2.22l.673-.672a1.57 1.57 0 1 0-2.22-2.22Zm9.403 10.748.673-.672a1.57 1.57 0 1 0-2.22-2.22l-.673.672a1.57 1.57 0 1 0 2.22 2.22ZM44.14 88.316l.673-.673a1.57 1.57 0 1 0-2.22-2.22l-.673.672a1.57 1.57 0 1 0 2.22 2.22Zm5.636 5.635a1.57 1.57 0 1 0 2.22 2.22l.672-.672a1.57 1.57 0 1 0-2.22-2.22l-.672.672ZM38.39 91.844a1.57 1.57 0 0 0-2.22 0l-.672.673a1.57 1.57 0 1 0 2.22 2.22l.672-.672a1.57 1.57 0 0 0 0-2.22Zm81.518 54.17h-8.737a12.646 12.646 0 0 1 4.171 7.877h13.305a1.57 1.57 0 1 1 0 3.141H9.468a1.57 1.57 0 1 1 0-3.141h13.305a12.644 12.644 0 0 1 4.172-7.877h-8.738C8.167 146.014 0 137.846 0 127.807c0-.867.703-1.57 1.57-1.57h13.57a6.04 6.04 0 0 1-.719-2.11 6.153 6.153 0 0 1-3.444-1.726 6.1 6.1 0 0 1-1.798-4.34c0-1.64.638-3.181 1.798-4.34a6.095 6.095 0 0 1 4.34-1.798c1.134 0 2.22.305 3.167.876l7.26-7.26a18.362 18.362 0 0 1-2.286-8.909c0-4.933 1.92-9.57 5.41-13.059l10.736-10.736c7.2-7.2 18.916-7.2 26.117 0a18.28 18.28 0 0 1 5.272 10.806 1.57 1.57 0 1 1-3.117.38 15.173 15.173 0 0 0-4.375-8.965c-5.976-5.976-15.7-5.976-21.677 0L31.088 85.792c-5.198 5.198-5.873 13.232-2.027 19.168.136.21.276.415.422.617l.024.035a15.713 15.713 0 0 0 1.58 1.857c.766.765 1.62 1.454 2.538 2.047l.003.002c.811.523 1.669.97 2.573 1.333a1.57 1.57 0 1 1-1.17 2.915 18.446 18.446 0 0 1-2.01-.957l-7.264 7.264c.571.946.877 2.033.877 3.166a6.1 6.1 0 0 1-.785 2.998h110.696a1.57 1.57 0 0 1 1.571 1.57c0 10.039-8.167 18.207-18.207 18.207ZM15.754 121.022a1.572 1.572 0 0 1 1.78 1.78 2.976 2.976 0 0 0 .842 2.557 3 3 0 0 0 4.24 0 2.977 2.977 0 0 0 .878-2.12c0-.786-.301-1.525-.848-2.088a1.573 1.573 0 0 1-.097-2.311l7.812-7.812-.006-.005a18.622 18.622 0 0 1-.69-.585c-.026-.024-.054-.046-.08-.069a18.81 18.81 0 0 1-1.391-1.391c-.031-.034-.06-.07-.09-.105-.194-.218-.383-.44-.566-.666l-.009-.011-7.812 7.812a1.567 1.567 0 0 1-2.244-.025 1.835 1.835 0 0 1-.067-.073 3 3 0 0 0-4.208.031 2.979 2.979 0 0 0-.878 2.12c0 .8.312 1.553.878 2.12a2.977 2.977 0 0 0 2.556.841Zm104.155 21.852c7.778 0 14.197-5.924 14.985-13.497H3.222c.788 7.572 7.208 13.497 14.985 13.497H81.06a1.57 1.57 0 1 1 0 3.14H34.587c-4.391.322-7.93 3.652-8.644 7.877h86.231c-.714-4.225-4.253-7.555-8.644-7.877h-9.19a1.57 1.57 0 1 1 0-3.14h25.569Zm-31.615 0h-1.55a1.57 1.57 0 1 0 0 3.14h1.55a1.57 1.57 0 1 0 0-3.14Zm-69.691-79.69c.85.166 1.676-.39 1.842-1.24 4.526-23.17 24.97-39.985 48.613-39.985s44.088 16.816 48.613 39.985a1.572 1.572 0 0 0 1.842 1.24 1.569 1.569 0 0 0 1.24-1.843c-4.812-24.64-26.553-42.523-51.695-42.523-25.141 0-46.882 17.884-51.695 42.523a1.57 1.57 0 0 0 1.24 1.843Zm21.805-.06a1.57 1.57 0 0 0 2.002-.961c3.973-11.309 14.682-18.907 26.648-18.907 11.967 0 22.675 7.598 26.648 18.907a1.571 1.571 0 0 0 2.963-1.04c-4.414-12.566-16.313-21.007-29.61-21.007-13.298 0-25.198 8.441-29.612 21.006a1.57 1.57 0 0 0 .961 2.002Zm28.65-34.066c19.586 0 36.983 13.852 41.365 32.936a1.57 1.57 0 1 0 3.06-.703c-2.269-9.883-7.896-18.86-15.843-25.275a45.657 45.657 0 0 0-28.582-10.098 45.657 45.657 0 0 0-28.581 10.098c-7.948 6.416-13.575 15.392-15.844 25.275a1.57 1.57 0 0 0 3.06.703c4.382-19.084 21.779-32.936 41.365-32.936Zm-35.99 34.098A1.57 1.57 0 0 0 35 62.062c4.23-15.252 18.235-25.904 34.058-25.904 15.822 0 29.828 10.652 34.058 25.904a1.57 1.57 0 1 0 3.026-.839c-4.606-16.607-19.855-28.206-37.084-28.206-17.228 0-32.478 11.599-37.084 28.206a1.57 1.57 0 0 0 1.094 1.933Z" fill="#2D2424"/></svg>