<svg width="137" height="158" fill="none" xmlns="http://www.w3.org/2000/svg"><path d="M116.915 108.512h-22.13a2.566 2.566 0 0 1-2.565-2.566V97.63c0-6.959-5.642-12.6-12.601-12.6H57.245c-6.96 0-12.602 5.641-12.602 12.6v8.316a2.566 2.566 0 0 1-2.565 2.566h-22.13c-1.77 0-3.316 1.331-3.436 3.097a3.33 3.33 0 0 0 3.298 3.565l11.038.04c3.195.012 6.36.612 9.338 1.77l11.619 4.518v14.025h33.254v-14.025l11.618-4.519a26.036 26.036 0 0 1 9.339-1.769l11.038-.04a3.331 3.331 0 0 0 3.298-3.566c-.121-1.765-1.667-3.096-3.437-3.096Z" fill="#fff"/><path d="M35.681 108.511H19.835a3.332 3.332 0 0 0-.026 6.663l11.038.04c1.626.006 3.244.166 4.834.473v-7.176ZM68.432 85.03c10.456 0 18.932-8.477 18.932-18.933s-8.476-18.932-18.932-18.932c-10.456 0-18.932 8.476-18.932 18.932 0 10.456 8.476 18.932 18.932 18.932Z" fill="#fff"/><path d="M57.244 85.03h11.187C57.975 85.028 49.5 76.552 49.5 66.096s8.476-18.932 18.932-18.932c10.456 0 18.932 8.476 18.932 18.932 0 10.456-8.476 18.932-18.931 18.932h11.186c6.959 0 12.6 5.642 12.6 12.602v.49c9.772-7.271 16.103-18.908 16.103-32.024 0-22.03-17.86-39.89-39.89-39.89-22.031 0-39.89 17.86-39.89 39.89 0 13.116 6.33 24.752 16.101 32.023v-.49c0-6.959 5.642-12.6 12.601-12.6Z" fill="#F7E8E6"/><path d="M100.847 155.462h-64.83a9.3 9.3 0 0 1-9.3-9.3v-1.336a9.3 9.3 0 0 1 9.3-9.3h64.829a9.3 9.3 0 0 1 9.3 9.3v1.336c.001 5.136-4.163 9.3-9.299 9.3Z" fill="#DEC1B4"/><path d="M80.41 135.526H56.453v19.936H80.41v-19.936Zm20.772-27.015h15.846a3.332 3.332 0 0 1 .026 6.663l-11.038.04a26.003 26.003 0 0 0-4.834.473v-7.176Z" fill="#fff"/><path d="M9.38 135.526c0-.867.703-1.57 1.57-1.57h1.876v-1.877a1.57 1.57 0 0 1 3.141 0v1.877h1.876a1.57 1.57 0 1 1 0 3.141h-1.876v1.876a1.571 1.571 0 0 1-3.14 0v-1.876H10.95a1.57 1.57 0 0 1-1.57-1.571Zm114.657-1.57v-1.877a1.57 1.57 0 0 0-3.14 0v1.877h-1.877a1.57 1.57 0 0 0 0 3.141h1.877v1.876a1.571 1.571 0 1 0 3.14 0v-1.876h1.877a1.571 1.571 0 0 0 0-3.141h-1.877ZM39.974 94.089a1.57 1.57 0 0 0 .105-2.218 38.223 38.223 0 0 1-9.967-25.773c0-21.13 17.19-38.32 38.32-38.32s38.32 17.19 38.32 38.32c0 9.554-3.54 18.707-9.967 25.773a1.57 1.57 0 1 0 2.323 2.113 41.356 41.356 0 0 0 10.784-27.887c0-22.861-18.599-41.46-41.46-41.46-22.862 0-41.46 18.599-41.46 41.46a41.355 41.355 0 0 0 10.784 27.887 1.57 1.57 0 0 0 2.218.105ZM3.799 153.891H1.57a1.57 1.57 0 0 0 0 3.141H3.8a1.57 1.57 0 1 0 0-3.141Zm125.264 1.571a1.57 1.57 0 0 1-1.57 1.57H9.371a1.57 1.57 0 1 1 0-3.141h19.012a10.836 10.836 0 0 1-3.236-7.73v-1.335c0-5.994 4.876-10.87 10.87-10.87h64.829c5.994 0 10.871 4.876 10.871 10.87v1.335c0 3.022-1.24 5.758-3.237 7.73h19.013c.867 0 1.57.703 1.57 1.571Zm-90.162-1.571h15.983v-12.962a1.57 1.57 0 0 1 3.14 0v2.995H78.84v-6.827H36.017c-4.262 0-7.73 3.468-7.73 7.73v1.335c0 4.262 3.468 7.73 7.73 7.73h2.884v-.001Zm61.945 0c4.262 0 7.73-3.467 7.73-7.73v-1.335c0-4.262-3.468-7.729-7.73-7.729H81.979v12.814a1.57 1.57 0 0 1-3.14 0v-2.847H58.025v6.827h42.821Zm34.447 0h-2.229a1.57 1.57 0 0 0 0 3.141h2.229a1.57 1.57 0 1 0 0-3.141ZM26.451 100.478a4.807 4.807 0 0 1 4.802 4.802 4.77 4.77 0 0 1-.303 1.661h11.128a.996.996 0 0 0 .995-.995V97.63c0-7.814 6.357-14.171 14.171-14.171h.302c-5.771-3.632-9.617-10.054-9.617-17.362 0-11.305 9.198-20.502 20.503-20.502s20.502 9.197 20.502 20.502c0 7.308-3.846 13.73-9.617 17.362h.302c7.814 0 14.171 6.357 14.171 14.171v8.316c0 .549.447.995.995.995h11.128a4.766 4.766 0 0 1-.302-1.661 4.806 4.806 0 0 1 4.801-4.802 4.807 4.807 0 0 1 4.801 4.802c0 .584-.11 1.142-.302 1.661h2.004c2.631 0 4.828 2.003 5.004 4.561a4.866 4.866 0 0 1-1.295 3.673 4.921 4.921 0 0 1-3.558 1.57l-11.045.04a24.489 24.489 0 0 0-4.499.433l-.043.01a24.32 24.32 0 0 0-4.232 1.22l-10.618 4.129v7.938a1.57 1.57 0 0 1-3.14 0v-30.114a1.57 1.57 0 1 1 3.14 0v18.805l9.48-3.686a27.752 27.752 0 0 1 3.503-1.099v-4.339h-4.826a4.14 4.14 0 0 1-4.136-4.136V97.63c0-6.082-4.949-11.03-11.031-11.03H57.245c-6.083 0-11.031 4.948-11.031 11.03v8.316a4.141 4.141 0 0 1-4.136 4.136H37.25v4.339a27.43 27.43 0 0 1 3.504 1.099l9.48 3.686v-18.805a1.57 1.57 0 1 1 3.14 0v30.113a1.57 1.57 0 0 1-3.14 0v-7.938l-10.618-4.129a24.41 24.41 0 0 0-8.775-1.663l-11.038-.04a4.922 4.922 0 0 1-3.565-1.57 4.862 4.862 0 0 1-1.295-3.673c.175-2.557 2.373-4.56 5.004-4.56h2.004a4.771 4.771 0 0 1-.303-1.662 4.808 4.808 0 0 1 4.802-4.801Zm82.3 4.802c0 .916.745 1.661 1.661 1.661s1.661-.745 1.661-1.661-.745-1.661-1.661-1.661-1.661.745-1.661 1.661Zm8.164 4.802h-14.163v3.773a27.59 27.59 0 0 1 3.258-.211l11.038-.04a1.744 1.744 0 0 0 1.273-.564c.333-.36.498-.83.464-1.324-.061-.901-.9-1.634-1.87-1.634ZM68.432 83.459c9.573 0 17.361-7.788 17.361-17.362 0-9.573-7.788-17.361-17.361-17.361-9.574 0-17.362 7.788-17.362 17.361 0 9.574 7.788 17.362 17.362 17.362ZM34.11 110.082H19.948c-.97 0-1.809.733-1.87 1.634-.034.494.131.964.464 1.324.334.36.788.56 1.28.564l11.031.04c1.095.004 2.18.079 3.258.211v-3.773Zm-9.321-4.802c0 .916.745 1.661 1.66 1.661.917 0 1.662-.745 1.662-1.661s-.745-1.661-1.661-1.661-1.661.745-1.661 1.661ZM66.861 9.318v10.55a1.57 1.57 0 0 0 3.141 0V9.319a1.57 1.57 0 1 0-3.14 0Zm1.57-4.859a1.57 1.57 0 0 0 1.571-1.57V1.57a1.57 1.57 0 0 0-3.14 0v1.32c0 .866.702 1.57 1.57 1.57Zm31.732 29.192a1.57 1.57 0 0 0 1.111-.46l7.46-7.46a1.569 1.569 0 1 0-2.22-2.221l-7.46 7.46a1.57 1.57 0 0 0 1.109 2.68Zm12.007-12.007c.402 0 .804-.153 1.11-.46l.933-.932a1.57 1.57 0 0 0-2.22-2.221l-.933.933a1.569 1.569 0 0 0 1.11 2.68Zm.283 42.168c0 .867.703 1.57 1.57 1.57h10.551a1.57 1.57 0 0 0 0-3.14h-10.551a1.57 1.57 0 0 0-1.57 1.57Zm21.439 0a1.57 1.57 0 0 0-1.57-1.57h-1.319a1.57 1.57 0 0 0 0 3.14h1.319a1.57 1.57 0 0 0 1.57-1.57ZM12.29 65.382h10.55a1.57 1.57 0 0 0 0-3.14H12.29a1.57 1.57 0 0 0 0 3.14Zm-6.43-3.14H4.542a1.57 1.57 0 0 0 0 3.14H5.86a1.57 1.57 0 0 0 0-3.14ZM35.59 33.19a1.566 1.566 0 0 0 2.221 0 1.57 1.57 0 0 0 0-2.221l-7.46-7.46a1.57 1.57 0 0 0-2.222 2.22l7.46 7.46ZM23.582 21.184a1.566 1.566 0 0 0 2.221 0 1.57 1.57 0 0 0 0-2.22l-.933-.933a1.57 1.57 0 0 0-2.22 2.22l.932.933Z" fill="#2D2424"/></svg>