<svg width="220" height="220" fill="none" xmlns="http://www.w3.org/2000/svg"><path d="M170.495 135.006H49.505c-5.69 0-10.304 4.614-10.304 10.304 0 5.691 4.613 10.304 10.304 10.304h3.986l7.406 56.869a6.104 6.104 0 0 0 6.054 5.317h86.099a6.105 6.105 0 0 0 6.054-5.317l7.405-56.869h3.986c5.691 0 10.304-4.613 10.304-10.304 0-5.69-4.613-10.304-10.304-10.304Z" fill="#F6E8E6"/><path d="M138.244 192.495a6.714 6.714 0 1 0 0-13.428 6.714 6.714 0 0 0 0 13.428Zm-28.244 0a6.713 6.713 0 1 0 0-13.426 6.713 6.713 0 0 0 0 13.426Zm-28.244 0a6.714 6.714 0 1 0 0-13.428 6.714 6.714 0 0 0 0 13.428Z" fill="#AAB1BA"/><path d="M147.395 97.812a27.308 27.308 0 0 0 2.29-10.54l.494-32.288L127.125 74.1a29.584 29.584 0 0 0-2.502-15.953L110 26.398 95.377 58.147A29.58 29.58 0 0 0 92.876 74.1L69.821 54.984l.495 32.287a27.328 27.328 0 0 0 2.289 10.541l-26.78-9.89 13.195 35.725a32.228 32.228 0 0 0 7.17 11.359h26.328a.024.024 0 0 1-.002-.007l.018.063h34.932c.01-.031.017-.063.027-.095l-.011.039h26.327a32.23 32.23 0 0 0 7.171-11.359l13.194-35.725-26.779 9.89Z" fill="#DEC1B4"/><path d="M173.331 217.8a2.2 2.2 0 0 1-2.2 2.2H48.87a2.2 2.2 0 0 1 0-4.4h10.755a8.23 8.23 0 0 1-.91-2.833l-6.342-48.702a2.2 2.2 0 1 1 4.363-.568l6.343 48.702a3.915 3.915 0 0 0 3.872 3.401h86.099a3.916 3.916 0 0 0 3.873-3.401l6.342-48.702a2.2 2.2 0 1 1 4.363.568l-6.342 48.702a8.229 8.229 0 0 1-.91 2.833h10.756a2.2 2.2 0 0 1 2.199 2.2Zm-133.162-2.2h-1.877a2.2 2.2 0 0 0 0 4.4h1.877a2.2 2.2 0 0 0 0-4.4Zm141.539 0h-1.877a2.2 2.2 0 0 0 0 4.4h1.877a2.2 2.2 0 0 0 0-4.4Zm-52.972-86.247.111.002a2.2 2.2 0 0 0 2.195-2.091 34.577 34.577 0 0 0-3.112-16.114l-15.932-34.592a2.2 2.2 0 0 0-3.996 0L92.07 111.149a34.585 34.585 0 0 0-3.112 16.115 2.2 2.2 0 0 0 4.394-.218c-.238-4.821.7-9.682 2.714-14.056L110 82.737l13.934 30.254a30.165 30.165 0 0 1 2.713 14.055 2.2 2.2 0 0 0 2.089 2.307ZM105.171 9.229h2.629v2.629a2.2 2.2 0 1 0 4.4 0V9.229h2.629a2.2 2.2 0 1 0 0-4.4H112.2V2.2a2.2 2.2 0 1 0-4.4 0v2.629h-2.629a2.2 2.2 0 1 0 0 4.4ZM76.927 33.475h2.629v2.629a2.2 2.2 0 0 0 4.4 0v-2.629h2.629a2.2 2.2 0 1 0 0-4.4h-2.629v-2.629a2.2 2.2 0 1 0-4.4 0v2.63h-2.629a2.2 2.2 0 1 0 0 4.4Zm56.489 0h2.629v2.629a2.2 2.2 0 1 0 4.4 0v-2.629h2.628a2.2 2.2 0 1 0 0-4.4h-2.628v-2.629a2.2 2.2 0 1 0-4.4 0v2.63h-2.629a2.2 2.2 0 1 0 0 4.4ZM81.551 157.814a2.2 2.2 0 1 0 0-4.4h-2.73a2.2 2.2 0 0 0 0 4.4h2.73Zm-32.046 0H69.82a2.2 2.2 0 1 0 0-4.4H49.505c-4.468 0-8.104-3.635-8.104-8.104 0-4.468 3.636-8.103 8.104-8.103h120.991c4.468 0 8.104 3.635 8.104 8.103 0 4.469-3.636 8.104-8.104 8.104h-79.38a2.2 2.2 0 0 0 0 4.4h79.38c6.894 0 12.504-5.609 12.504-12.504 0-6.894-5.61-12.503-12.504-12.503H49.505C42.61 132.807 37 138.416 37 145.31c0 6.895 5.61 12.504 12.504 12.504Zm7.452-33.404a34.72 34.72 0 0 0 2.172 4.734 2.2 2.2 0 0 0 3.851-2.127 30.352 30.352 0 0 1-1.896-4.132l-11.54-31.244L80.79 103.18a30.18 30.18 0 0 1 5.49 2.688 2.2 2.2 0 1 0 2.327-3.735 34.639 34.639 0 0 0-6.293-3.08l-8.046-2.972a25.011 25.011 0 0 1-1.751-8.844l-.422-27.51 21.18 17.562a25.325 25.325 0 0 1 3.492 3.535 2.2 2.2 0 1 0 3.418-2.77 29.674 29.674 0 0 0-4.101-4.153l-1.112-.921c-.425-4.766.4-9.559 2.405-13.913L110 31.657l12.624 27.41a27.404 27.404 0 0 1 2.405 13.914l-1.111.921a29.69 29.69 0 0 0-4.102 4.152 2.2 2.2 0 0 0 3.418 2.77 25.352 25.352 0 0 1 3.492-3.535l21.18-17.562-.421 27.51a24.985 24.985 0 0 1-1.752 8.845l-8.046 2.971a34.615 34.615 0 0 0-6.297 3.083 2.2 2.2 0 0 0 2.327 3.734 30.265 30.265 0 0 1 5.494-2.689l8.946-3.304.002-.001 22.297-8.235-11.541 31.244a30.157 30.157 0 0 1-1.896 4.132 2.2 2.2 0 0 0 3.852 2.127 34.81 34.81 0 0 0 2.172-4.734l13.195-35.725a2.2 2.2 0 0 0-2.826-2.826l-22.445 8.29c.569-2.23.881-4.517.916-6.844l.495-32.287a2.201 2.201 0 0 0-3.604-1.727l-19.266 15.975a31.789 31.789 0 0 0-2.889-12.04l-14.622-31.748a2.2 2.2 0 0 0-3.996 0L93.378 57.227a31.809 31.809 0 0 0-2.888 12.038L71.225 53.291a2.201 2.201 0 0 0-3.604 1.727l.494 32.287c.036 2.327.348 4.614.917 6.843l-22.445-8.29a2.198 2.198 0 0 0-2.826 2.827l13.196 35.725Zm81.287 52.458c4.914 0 8.913 3.998 8.913 8.913s-3.999 8.914-8.913 8.914c-4.915 0-8.914-3.999-8.914-8.914 0-4.915 3.999-8.913 8.914-8.913Zm0 4.4a4.519 4.519 0 0 0-4.514 4.513 4.52 4.52 0 0 0 4.514 4.514 4.519 4.519 0 0 0 4.513-4.514 4.518 4.518 0 0 0-4.513-4.513Zm-28.244-4.4c4.915 0 8.914 3.998 8.914 8.913s-3.999 8.913-8.914 8.913c-4.915 0-8.913-3.998-8.913-8.913s3.998-8.913 8.913-8.913Zm0 4.4a4.518 4.518 0 0 0-4.513 4.513 4.518 4.518 0 0 0 4.513 4.514 4.52 4.52 0 0 0 4.514-4.514 4.519 4.519 0 0 0-4.514-4.513Zm-28.243-4.4c4.914 0 8.913 3.998 8.913 8.913s-3.999 8.914-8.913 8.914c-4.915 0-8.914-3.999-8.914-8.914 0-4.915 3.998-8.913 8.913-8.913Zm-4.514 8.913a4.519 4.519 0 0 0 4.513 4.513 4.519 4.519 0 0 0 4.514-4.513 4.519 4.519 0 0 0-4.514-4.514 4.519 4.519 0 0 0-4.513 4.514Z" fill="#1C1D21"/></svg>