<svg width="27" height="27" fill="none" xmlns="http://www.w3.org/2000/svg"><path d="M19.664 6.281a1.311 1.311 0 1 0 0 2.623 1.311 1.311 0 0 0 0-2.623Zm5.027 2.645a8.294 8.294 0 0 0-.503-2.656 5.397 5.397 0 0 0-1.267-1.934 5.136 5.136 0 0 0-1.935-1.257 7.979 7.979 0 0 0-2.655-.513C17.172 2.5 16.8 2.5 13.828 2.5s-3.344 0-4.503.066a7.978 7.978 0 0 0-2.655.513c-.73.27-1.391.7-1.935 1.257A5.136 5.136 0 0 0 3.48 6.27a7.978 7.978 0 0 0-.514 2.656c-.066 1.158-.066 1.53-.066 4.503 0 2.972 0 3.344.066 4.502a7.99 7.99 0 0 0 .514 2.656 5.136 5.136 0 0 0 1.256 1.934 5.223 5.223 0 0 0 1.935 1.257c.85.321 1.747.495 2.655.514 1.159.065 1.53.065 4.503.065s3.344 0 4.503-.065a7.976 7.976 0 0 0 2.655-.514 5.135 5.135 0 0 0 1.935-1.257 5.3 5.3 0 0 0 1.267-1.934 8.295 8.295 0 0 0 .503-2.656c0-1.158.066-1.53.066-4.502 0-2.973 0-3.345-.066-4.503ZM22.724 17.8a6.129 6.129 0 0 1-.372 2.033 3.343 3.343 0 0 1-.82 1.257c-.354.36-.783.64-1.256.82a6.129 6.129 0 0 1-2.033.37c-1.093.055-1.497.066-4.371.066-2.874 0-3.279 0-4.372-.065a6.263 6.263 0 0 1-2.12-.328 3.573 3.573 0 0 1-1.202-.82 3.279 3.279 0 0 1-.809-1.257 6.054 6.054 0 0 1-.437-2.076c0-1.093-.065-1.497-.065-4.371 0-2.875 0-3.279.065-4.372.005-.71.135-1.412.383-2.076.192-.462.487-.873.863-1.202a3.432 3.432 0 0 1 1.202-.875 6.262 6.262 0 0 1 2.077-.371c1.092 0 1.497-.066 4.371-.066 2.874 0 3.279 0 4.372.066a6.131 6.131 0 0 1 2.032.371c.497.185.943.484 1.3.875.359.335.639.746.82 1.202a6.13 6.13 0 0 1 .372 2.076c.055 1.093.066 1.497.066 4.372 0 2.874-.011 3.278-.066 4.371Zm-8.896-9.978a5.606 5.606 0 1 0 5.617 5.607 5.594 5.594 0 0 0-5.617-5.607Zm0 9.246a3.64 3.64 0 1 1 0-7.28 3.64 3.64 0 0 1 0 7.28Z" fill="#fff"/></svg>