<svg width="70" height="70" fill="none" xmlns="http://www.w3.org/2000/svg"><path fill-rule="evenodd" clip-rule="evenodd" d="M28.438 52.5a24.063 24.063 0 1 0 0-48.127 24.063 24.063 0 0 0 0 48.127Zm28.437-24.063a28.437 28.437 0 1 1-56.874 0 28.437 28.437 0 0 1 56.874 0Z" fill="#fff"/><path d="M45.255 51.371c.131.175.271.341.429.503l16.844 16.844a4.376 4.376 0 0 0 6.19-6.186L51.874 45.688a4.407 4.407 0 0 0-.503-.438 28.605 28.605 0 0 1-6.116 6.126v-.005Z" fill="#fff"/><path fill-rule="evenodd" clip-rule="evenodd" d="M28.438 13.125a2.188 2.188 0 0 1 2.187 2.188V26.25h10.938a2.188 2.188 0 0 1 0 4.375H30.624v10.938a2.188 2.188 0 0 1-4.375 0V30.624H15.312a2.188 2.188 0 0 1 0-4.375H26.25V15.312a2.188 2.188 0 0 1 2.188-2.187Z" fill="#fff"/></svg>