<svg width="139" height="158" viewBox="0 0 139 158" fill="none" xmlns="http://www.w3.org/2000/svg">
<path d="M26.1636 61.6425C30.6497 42.1046 48.1789 27.4881 69.0584 27.4881C89.938 27.4881 107.467 42.1046 111.953 61.6428H119.213C114.62 38.1323 93.9131 20.3887 69.0584 20.3887C44.2038 20.3887 23.4966 38.1323 18.9044 61.6425H26.1636Z" fill="white"/>
<path d="M40.9291 61.6426C45.0069 50.0335 56.0729 41.686 69.0582 41.686C82.0435 41.686 93.1095 50.0338 97.1873 61.6426H104.629C100.308 46.0597 85.9985 34.5869 69.0582 34.5869C52.1179 34.5869 37.8089 46.0597 33.4871 61.6426H40.9291Z" fill="#DEC1B4"/>
<path d="M33.4872 61.6425C37.809 46.0596 52.118 34.5868 69.0583 34.5868C85.9986 34.5868 100.308 46.0596 104.629 61.6425H111.953C107.467 42.1046 89.9379 27.488 69.0583 27.488C48.1787 27.488 30.6496 42.1046 26.1635 61.6428H33.4872V61.6425Z" fill="#F6E8E6"/>
<path d="M29.9779 108.579C29.111 107.712 28.3611 106.773 27.7216 105.783L18.6069 114.897C18.5862 114.876 18.5692 114.852 18.5478 114.831C16.764 113.047 13.8714 113.047 12.0875 114.831C10.3037 116.614 10.3037 119.507 12.0875 121.291C13.1491 122.352 14.6019 122.777 15.981 122.575C15.7797 123.954 16.2043 125.407 17.2658 126.469C19.0497 128.252 21.9422 128.253 23.7261 126.469C25.51 124.685 25.51 121.792 23.7261 120.008C23.7048 119.987 23.6809 119.97 23.6595 119.949L32.7743 110.834C31.784 110.196 30.845 109.446 29.9779 108.579Z" fill="#F6E8E6"/>
<path d="M51.1749 102.785C53.4663 102.785 55.5689 103.576 57.2388 104.893C57.2388 104.892 57.2388 104.892 57.2388 104.892C57.1063 104.179 57.029 103.445 57.029 102.692C57.029 96.1143 62.3153 90.774 68.8714 90.681C70.5617 84.939 69.1421 78.4759 64.6118 73.9452C58.0127 67.3461 47.3138 67.3461 40.7147 73.9452L29.9784 84.6814C23.3793 91.2806 23.3793 101.979 29.9784 108.579C33.1467 111.747 37.2596 113.389 41.4103 113.516C41.382 113.213 41.3632 112.907 41.3632 112.597C41.3629 107.178 45.7557 102.785 51.1749 102.785Z" fill="white"/>
<path d="M127.818 117.024C129.513 114.957 130.439 112.366 130.439 109.692V101.474C130.439 98.2588 129.1 95.1882 126.744 93.0004C123.008 89.531 117.44 88.9179 113.039 91.4914L108.859 93.9351L104.679 91.4914C100.277 88.9182 94.7099 89.531 90.9735 93.0004C88.617 95.1885 87.2782 98.2588 87.2782 101.474V102.793C92.5413 102.97 96.7544 107.29 96.7544 112.596C96.7544 114.688 96.0981 116.625 94.9825 118.218C94.9932 118.218 95.0032 118.217 95.0139 118.217C100.358 118.217 104.702 122.491 104.82 127.807H118.975C118.981 127.8 118.987 127.794 118.992 127.787L127.818 117.024Z" fill="white"/>
<path d="M118.907 83.8961C123.478 82.2051 126.391 78.6946 125.415 76.0553C124.438 73.4159 119.941 72.6472 115.371 74.3382C110.8 76.0293 107.886 79.5398 108.863 82.1791C109.839 84.8184 114.336 85.5872 118.907 83.8961Z" fill="#DEC1B4"/>
<path d="M1.57047 127.807C1.57047 136.995 9.01911 144.444 18.2074 144.444H34.5101C28.7728 144.844 24.2421 149.622 24.2421 155.461H113.875C113.875 149.622 109.344 144.844 103.607 144.444H119.91C129.098 144.444 136.547 136.995 136.547 127.807H1.57047Z" fill="#F6E8E6"/>
<path d="M33.2964 127.807H69.0488C69.0447 127.746 69.04 127.685 69.0375 127.623C69.04 127.685 69.0444 127.746 69.0488 127.807H104.82C104.702 122.491 100.358 118.217 95.0137 118.217C95.003 118.217 94.9926 118.217 94.9823 118.217C96.0975 116.625 96.7542 114.688 96.7542 112.596C96.7542 107.177 92.3611 102.784 86.9423 102.784C84.6361 102.784 82.5199 103.586 80.845 104.917C80.9807 104.195 81.0598 103.453 81.0598 102.692C81.0598 96.0559 75.6802 90.6763 69.0444 90.6763C62.4082 90.6763 57.0289 96.0559 57.0289 102.692C57.0289 103.445 57.1062 104.178 57.2387 104.892C57.2387 104.892 57.2387 104.892 57.2387 104.892C55.5689 103.576 53.4662 102.784 51.1748 102.784C45.7556 102.784 41.3628 107.177 41.3628 112.596C41.3628 114.688 42.0192 116.625 43.1345 118.217C43.1241 118.217 43.1137 118.217 43.1031 118.217C37.7583 118.217 33.4148 122.491 33.2964 127.807Z" fill="#DEC1B4"/>
<path d="M4.90662 155.462C4.90662 156.329 4.20374 157.032 3.3363 157.032H1.57032C0.702874 157.032 0 156.329 0 155.462C0 154.594 0.702874 153.891 1.57032 153.891H3.3363C4.20374 153.891 4.90662 154.594 4.90662 155.462ZM136.546 153.891H134.78C133.913 153.891 133.21 154.594 133.21 155.462C133.21 156.329 133.913 157.032 134.78 157.032H136.546C137.414 157.032 138.116 156.329 138.116 155.462C138.116 154.594 137.413 153.891 136.546 153.891ZM65.6114 6.58749H67.4879V8.46402C67.4879 9.33146 68.1908 10.0343 69.0582 10.0343C69.9257 10.0343 70.6285 9.33146 70.6285 8.46402V6.58749H72.5051C73.3725 6.58749 74.0754 5.88461 74.0754 5.01717C74.0754 4.14972 73.3725 3.44685 72.5051 3.44685H70.6285V1.57032C70.6285 0.702875 69.9257 0 69.0582 0C68.1908 0 67.4879 0.702875 67.4879 1.57032V3.44685H65.6114C64.7439 3.44685 64.041 4.14972 64.041 5.01717C64.041 5.88461 64.7442 6.58749 65.6114 6.58749ZM114.337 32.6497H116.213V34.5263C116.213 35.3937 116.916 36.0966 117.784 36.0966C118.651 36.0966 119.354 35.3937 119.354 34.5263V32.6497H121.23C122.098 32.6497 122.801 31.9469 122.801 31.0794C122.801 30.212 122.098 29.5091 121.23 29.5091H119.354V27.6326C119.354 26.7651 118.651 26.0623 117.784 26.0623C116.916 26.0623 116.213 26.7651 116.213 27.6326V29.5091H114.337C113.469 29.5091 112.766 30.212 112.766 31.0794C112.766 31.9469 113.469 32.6497 114.337 32.6497ZM16.8863 32.6497H18.7628V34.5263C18.7628 35.3937 19.4657 36.0966 20.3331 36.0966C21.2006 36.0966 21.9034 35.3937 21.9034 34.5263V32.6497H23.78C24.6474 32.6497 25.3503 31.9469 25.3503 31.0794C25.3503 30.212 24.6474 29.5091 23.78 29.5091H21.9034V27.6326C21.9034 26.7651 21.2006 26.0623 20.3331 26.0623C19.4657 26.0623 18.7628 26.7651 18.7628 27.6326V29.5091H16.8863C16.0188 29.5091 15.3159 30.212 15.3159 31.0794C15.3159 31.9469 16.0188 32.6497 16.8863 32.6497ZM93.6905 117.326L91.4509 120.303C90.9296 120.996 91.0684 121.98 91.7616 122.501C92.0442 122.714 92.3755 122.817 92.7044 122.817C93.1811 122.817 93.6519 122.601 93.9603 122.191L95.7417 119.823C98.3016 120.047 100.601 121.442 101.99 123.655C102.288 124.13 102.799 124.39 103.322 124.39C103.607 124.39 103.896 124.312 104.155 124.149C104.889 123.688 105.111 122.719 104.65 121.984C102.999 119.356 100.418 117.56 97.4756 116.913C98.0347 115.554 98.3239 114.094 98.3239 112.597C98.3239 106.321 93.2179 101.215 86.9416 101.215C85.4099 101.215 83.9489 101.521 82.6135 102.072C82.2875 94.8676 76.326 89.1068 69.0434 89.1068C61.7644 89.1068 55.8054 94.8617 55.4737 102.06C54.1462 101.517 52.6949 101.215 51.1739 101.215C44.8976 101.215 39.7916 106.321 39.7916 112.597C39.7916 114.094 40.0808 115.554 40.6398 116.913C37.6977 117.56 35.1164 119.356 33.4657 121.984C33.0043 122.719 33.2261 123.688 33.9603 124.149C34.2198 124.312 34.5087 124.39 34.7939 124.39C35.3161 124.39 35.8271 124.13 36.1252 123.655C37.5137 121.443 39.8104 120.05 42.3455 119.824L44.1266 122.191C44.435 122.601 44.9058 122.817 45.3825 122.817C45.711 122.817 46.0427 122.714 46.3253 122.501C47.0185 121.98 47.1573 120.996 46.6359 120.303L44.5339 117.509C44.5006 117.443 44.4626 117.379 44.4193 117.317C43.4457 115.927 42.9316 114.295 42.9316 112.597C42.9316 108.052 46.6287 104.355 51.1732 104.355C53.0868 104.355 54.8487 105.013 56.2491 106.111C56.2551 106.116 56.2592 106.121 56.2651 106.126C56.7585 106.515 57.1998 106.952 57.5851 107.427C57.6043 107.451 57.6228 107.475 57.6417 107.499C57.7089 107.584 57.7739 107.67 57.8377 107.756C57.8716 107.803 57.9046 107.849 57.9375 107.897C57.9831 107.962 58.027 108.027 58.0704 108.093C58.1103 108.154 58.1502 108.215 58.1885 108.277C58.2205 108.329 58.251 108.382 58.2817 108.434C58.3251 108.507 58.369 108.581 58.4102 108.657C58.4281 108.689 58.4444 108.723 58.462 108.755C58.6209 109.055 58.7619 109.366 58.8832 109.687C58.8951 109.718 58.908 109.749 58.9193 109.781C58.9513 109.869 58.9805 109.957 59.0097 110.047C59.0254 110.096 59.0421 110.144 59.0569 110.193C59.082 110.276 59.1049 110.359 59.1275 110.442C59.1432 110.5 59.1589 110.559 59.1734 110.618C59.1928 110.696 59.2111 110.775 59.228 110.854C59.2421 110.92 59.2553 110.986 59.2679 111.053C59.282 111.127 59.2959 111.202 59.3081 111.277C59.32 111.351 59.3298 111.425 59.3398 111.499C59.3492 111.57 59.3593 111.64 59.3668 111.711C59.3756 111.794 59.3816 111.877 59.3879 111.96C59.3929 112.024 59.3992 112.088 59.4026 112.153C59.4086 112.265 59.4108 112.377 59.4121 112.49C59.4124 112.525 59.4149 112.56 59.4149 112.596C59.4149 113.79 59.1555 114.95 58.6665 116.016C58.4598 116.467 58.2164 116.903 57.9275 117.316C57.9256 117.319 57.9243 117.322 57.9225 117.324L55.6822 120.302C55.1609 120.995 55.2997 121.979 55.9928 122.501C56.2755 122.713 56.6068 122.816 56.9357 122.816C57.4124 122.816 57.8832 122.6 58.1916 122.19L59.9749 119.82C61.6802 119.973 63.3039 120.656 64.6104 121.784C65.2672 122.351 66.2583 122.278 66.8255 121.621C67.3921 120.965 67.3192 119.973 66.6628 119.406C65.232 118.171 63.5257 117.321 61.706 116.916C61.732 116.853 61.7543 116.789 61.7792 116.725C61.8002 116.672 61.8209 116.618 61.841 116.564C61.9268 116.334 62.0075 116.102 62.0781 115.867C62.0797 115.861 62.0813 115.855 62.0829 115.849C62.1513 115.619 62.2101 115.387 62.2638 115.153C62.2769 115.097 62.2895 115.041 62.3014 114.984C62.4045 114.502 62.4761 114.012 62.516 113.516C62.5207 113.46 62.5247 113.403 62.5285 113.346C62.5448 113.097 62.5558 112.847 62.5558 112.596C62.5558 112.51 62.5508 112.426 62.5492 112.341C62.5467 112.228 62.5461 112.115 62.5401 112.003C62.5345 111.896 62.5241 111.789 62.5156 111.682C62.5084 111.593 62.5034 111.504 62.4943 111.415C62.482 111.295 62.4648 111.176 62.4487 111.056C62.4387 110.984 62.4305 110.91 62.4195 110.838C62.3994 110.707 62.3743 110.578 62.3498 110.448C62.3385 110.39 62.3291 110.331 62.3168 110.273C62.2879 110.134 62.2546 109.995 62.2204 109.857C62.2094 109.812 62.1994 109.767 62.1878 109.722C62.1494 109.575 62.107 109.428 62.0628 109.283C62.0527 109.25 62.0433 109.217 62.0332 109.185C61.9849 109.031 61.933 108.879 61.8781 108.727C61.8702 108.705 61.8624 108.683 61.8542 108.661C61.7958 108.502 61.7339 108.346 61.6686 108.191C61.663 108.177 61.6576 108.164 61.652 108.151C61.5835 107.99 61.5116 107.831 61.4356 107.673C61.4327 107.667 61.4299 107.662 61.4271 107.656C61.0012 106.774 60.4601 105.949 59.8134 105.198C59.7355 105.107 59.6586 105.016 59.5782 104.928C59.554 104.902 59.5286 104.877 59.5041 104.85C59.3891 104.727 59.272 104.606 59.1517 104.487C59.1401 104.476 59.1281 104.465 59.1168 104.454C58.9796 104.32 58.8389 104.19 58.6954 104.063C58.6947 104.063 58.6944 104.062 58.6938 104.062C58.6297 103.594 58.5983 103.142 58.5983 102.692C58.5983 96.9323 63.2838 92.2465 69.0434 92.2465C74.8031 92.2465 79.4889 96.9323 79.4889 102.692C79.4889 103.151 79.4562 103.612 79.3896 104.089C79.3846 104.093 79.3802 104.098 79.3752 104.102C79.2477 104.216 79.1227 104.333 79.0005 104.453C78.9779 104.475 78.954 104.496 78.9314 104.518C78.8259 104.623 78.7232 104.731 78.6215 104.84C78.0866 105.411 77.6168 106.031 77.2151 106.69C77.2126 106.694 77.2097 106.698 77.2075 106.702C77.1161 106.852 77.0285 107.005 76.9443 107.159C76.9396 107.168 76.9346 107.177 76.9299 107.186C76.8482 107.336 76.7701 107.489 76.695 107.643C76.6881 107.658 76.6808 107.673 76.6739 107.687C76.602 107.837 76.5336 107.988 76.4685 108.141C76.4591 108.163 76.4497 108.186 76.4403 108.208C76.379 108.355 76.32 108.503 76.265 108.652C76.2528 108.685 76.2418 108.717 76.2302 108.75C76.1793 108.891 76.1303 109.033 76.0854 109.177C76.0713 109.222 76.0587 109.267 76.0452 109.311C76.0047 109.446 75.9654 109.58 75.9299 109.716C75.9145 109.775 75.9014 109.834 75.8869 109.893C75.8564 110.017 75.8263 110.142 75.8002 110.268C75.7845 110.343 75.7716 110.419 75.7575 110.495C75.7368 110.607 75.7148 110.719 75.6972 110.833C75.6824 110.927 75.6715 111.023 75.6592 111.118C75.6466 111.215 75.6322 111.312 75.6221 111.41C75.6096 111.53 75.602 111.652 75.5933 111.773C75.5879 111.848 75.5801 111.923 75.576 111.999C75.5656 112.196 75.5603 112.396 75.5603 112.596C75.5603 112.845 75.5713 113.092 75.587 113.338C75.591 113.4 75.5954 113.462 75.6005 113.524C75.6199 113.765 75.6444 114.005 75.679 114.243C75.6796 114.248 75.6799 114.253 75.6806 114.258C75.716 114.5 75.7622 114.741 75.8131 114.98C75.826 115.039 75.8392 115.098 75.8523 115.157C75.9051 115.387 75.9629 115.614 76.0298 115.84C76.0326 115.849 76.0348 115.859 76.0376 115.869C76.1077 116.101 76.1875 116.331 76.2723 116.559C76.2936 116.617 76.3159 116.674 76.3385 116.732C76.3627 116.793 76.3844 116.856 76.4095 116.917C74.5895 117.321 72.8832 118.171 71.4523 119.407C70.7959 119.974 70.7234 120.965 71.2896 121.622C71.6002 121.982 72.0384 122.166 72.479 122.166C72.8424 122.166 73.2076 122.04 73.5047 121.784C74.8043 120.662 76.418 119.98 78.1133 119.822L79.8947 122.19C80.2031 122.6 80.6739 122.816 81.1506 122.816C81.4791 122.816 81.8108 122.713 82.0934 122.501C82.7866 121.979 82.9254 120.995 82.404 120.302L80.3026 117.509C80.269 117.443 80.231 117.378 80.1877 117.316C79.2144 115.927 78.7003 114.295 78.7003 112.596C78.7003 112.446 78.705 112.297 78.7128 112.148C78.7157 112.097 78.7207 112.048 78.7245 111.998C78.7314 111.9 78.7386 111.802 78.7493 111.705C78.7559 111.644 78.7644 111.584 78.7725 111.524C78.7835 111.439 78.7948 111.355 78.8083 111.271C78.8193 111.204 78.8316 111.138 78.8441 111.072C78.8583 110.996 78.873 110.921 78.8894 110.846C78.9047 110.775 78.9214 110.704 78.9387 110.634C78.9553 110.566 78.9729 110.499 78.9911 110.432C79.0115 110.357 79.0326 110.282 79.0552 110.207C79.0731 110.148 79.0926 110.09 79.1114 110.032C79.1378 109.952 79.1638 109.871 79.1924 109.793C79.2091 109.746 79.2276 109.701 79.2452 109.655C79.3661 109.339 79.5055 109.033 79.6629 108.737C79.6761 108.713 79.688 108.687 79.7012 108.663C79.7439 108.585 79.7891 108.508 79.8344 108.432C79.8626 108.384 79.8903 108.336 79.9195 108.288C79.96 108.222 80.0027 108.157 80.0451 108.092C80.084 108.033 80.123 107.974 80.1632 107.916C80.2006 107.862 80.2389 107.809 80.2775 107.755C80.3306 107.683 80.3849 107.61 80.4408 107.539C80.4703 107.501 80.4995 107.463 80.5294 107.426C80.6139 107.322 80.6999 107.22 80.7897 107.119C80.7932 107.116 80.7963 107.112 80.7998 107.108C81.1098 106.762 81.4515 106.44 81.8224 106.145C81.8258 106.143 81.8283 106.139 81.8315 106.136C83.2375 105.021 85.0126 104.353 86.9423 104.353C91.4867 104.353 95.1839 108.05 95.1839 112.595C95.1839 114.293 94.6695 115.925 93.6962 117.315C93.694 117.32 93.6927 117.323 93.6905 117.326ZM126.411 74.8445C126.844 75.2032 127.053 75.766 126.957 76.32C126.247 80.449 123.369 83.9159 119.447 85.3672C118.129 85.8547 116.753 86.093 115.384 86.093C113.678 86.093 111.985 85.7227 110.429 85.0051V91.1984L112.245 90.1363C117.281 87.1922 123.537 87.8813 127.812 91.8504C130.479 94.3275 132.009 97.8356 132.009 101.475V109.692C132.009 112.721 130.951 115.678 129.031 118.02L124.789 123.194C124.479 123.573 124.028 123.769 123.574 123.769C123.224 123.769 122.871 123.652 122.579 123.413C121.908 122.863 121.811 121.873 122.36 121.203L126.603 116.029C128.064 114.247 128.868 111.996 128.868 109.692V101.475C128.868 98.7058 127.705 96.0366 125.675 94.1519C122.423 91.1322 117.662 90.6074 113.831 92.8476L109.651 95.291C109.599 95.3212 109.545 95.3466 109.491 95.3705C109.482 95.3745 109.473 95.3799 109.464 95.384C109.381 95.4188 109.294 95.444 109.207 95.4637C109.184 95.4691 109.161 95.4735 109.138 95.4776C108.953 95.5112 108.764 95.5112 108.578 95.4776C108.555 95.4735 108.532 95.4691 108.509 95.4637C108.422 95.444 108.336 95.4188 108.252 95.384C108.243 95.3799 108.235 95.3745 108.225 95.3705C108.171 95.3466 108.118 95.3212 108.066 95.291L103.886 92.8476C100.054 90.6074 95.2938 91.1322 92.0414 94.1519C91.0565 95.0665 90.2776 96.1519 89.7264 97.3776C89.3706 98.1688 88.4413 98.5208 87.6501 98.1663C86.859 97.8104 86.5063 96.8811 86.8618 96.0903C87.5864 94.4788 88.6099 93.0524 89.9045 91.8504C94.1789 87.8804 100.435 87.1916 105.471 90.1363L107.288 91.1984V72.903C107.288 72.0355 107.991 71.3327 108.858 71.3327C109.726 71.3327 110.429 72.0355 110.429 72.903V75.7519C111.64 74.4887 113.133 73.489 114.821 72.8647C118.743 71.4134 123.185 72.1718 126.411 74.8445ZM115.911 75.81C113.331 76.7641 111.368 78.9088 110.616 81.5272C112.891 83.0256 115.778 83.3761 118.357 82.4216C120.937 81.4672 122.9 79.3224 123.652 76.7041C121.377 75.2054 118.491 74.8552 115.911 75.81ZM49.0137 79.0018L48.3413 79.6742C47.7279 80.2872 47.7279 81.2816 48.3413 81.8946C48.6478 82.2015 49.0498 82.3547 49.4515 82.3547C49.8532 82.3547 50.2555 82.2015 50.5617 81.8946L51.2342 81.2222C51.8475 80.6092 51.8475 79.6148 51.2342 79.0018C50.6214 78.3884 49.6265 78.3884 49.0137 79.0018ZM58.4174 89.7503L59.0898 89.0779C59.7032 88.4648 59.7032 87.4705 59.0898 86.8575C58.4771 86.2441 57.4821 86.2441 56.8694 86.8575L56.197 87.5299C55.5836 88.1429 55.5836 89.1372 56.197 89.7503C56.5035 90.0571 56.9055 90.2104 57.3072 90.2104C57.7089 90.2104 58.1112 90.0568 58.4174 89.7503ZM44.1404 88.3157L44.8128 87.6432C45.4262 87.0302 45.4262 86.0359 44.8128 85.4228C44.2001 84.8094 43.2051 84.8094 42.5924 85.4228L41.92 86.0952C41.3066 86.7083 41.3066 87.7026 41.92 88.3157C42.2265 88.6225 42.6285 88.7758 43.0302 88.7758C43.4319 88.7758 43.8342 88.6225 44.1404 88.3157ZM49.7756 93.9509C49.1623 94.5639 49.1623 95.5583 49.7756 96.1713C50.0822 96.4782 50.4842 96.6314 50.8859 96.6314C51.2875 96.6314 51.6899 96.4782 51.9961 96.1713L52.6685 95.4989C53.2818 94.8859 53.2818 93.8915 52.6685 93.2785C52.0557 92.6651 51.0608 92.6651 50.4481 93.2785L49.7756 93.9509ZM38.3915 91.8442C37.7787 91.2308 36.7838 91.2308 36.171 91.8442L35.4986 92.5166C34.8853 93.1296 34.8853 94.1239 35.4986 94.737C35.8051 95.0438 36.2071 95.1971 36.6088 95.1971C37.0105 95.1971 37.4128 95.0438 37.7191 94.737L38.3915 94.0646C39.0051 93.4519 39.0051 92.4575 38.3915 91.8442ZM119.909 146.014H111.172C113.422 148.007 114.952 150.786 115.343 153.891H128.648C129.516 153.891 130.219 154.594 130.219 155.462C130.219 156.329 129.516 157.032 128.648 157.032H113.875H24.2416H9.46839C8.60095 157.032 7.89807 156.329 7.89807 155.462C7.89807 154.594 8.60095 153.891 9.46839 153.891H22.7734C23.1644 150.786 24.6945 148.007 26.9451 146.014H18.2072C8.16785 146.014 0 137.846 0 127.807C0 126.94 0.702874 126.237 1.57032 126.237H15.1407C14.7729 125.582 14.527 124.87 14.4215 124.127C13.1301 123.936 11.9134 123.337 10.9768 122.401C9.81795 121.242 9.17914 119.7 9.17914 118.061C9.17883 116.421 9.81732 114.88 10.9772 113.721C12.1364 112.561 13.6778 111.923 15.3172 111.923C16.451 111.923 17.5379 112.228 18.4839 112.799L25.7444 105.539C24.2539 102.841 23.458 99.7978 23.458 96.6302C23.458 91.6972 25.3789 87.0594 28.8675 83.5714L39.6037 72.8351C46.8046 65.6343 58.5204 65.6343 65.7213 72.8351C68.6659 75.7795 70.4891 79.5162 70.9928 83.6408C71.0981 84.5017 70.4856 85.2846 69.6248 85.3898C68.7614 85.4979 67.981 84.8826 67.8758 84.0218C67.4574 80.6001 65.9449 77.4996 63.5009 75.0556C57.5245 69.0799 47.8008 69.0799 41.8242 75.0556L31.0879 85.7918C25.8895 90.9905 25.2155 99.0237 29.0609 104.96C29.1966 105.17 29.3373 105.375 29.4827 105.577C29.4912 105.589 29.4987 105.601 29.5072 105.612C29.826 106.052 30.1671 106.475 30.5282 106.878C30.7098 107.08 30.8963 107.277 31.0876 107.469C31.8533 108.234 32.7072 108.923 33.6252 109.516C33.6262 109.517 33.6274 109.517 33.6284 109.518C34.439 110.041 35.297 110.488 36.2006 110.851C37.0055 111.174 37.3962 112.088 37.073 112.893C36.8268 113.506 36.2376 113.879 35.6148 113.879C35.4201 113.879 35.2222 113.843 35.0307 113.766C34.3375 113.488 33.6692 113.165 33.0207 112.809L25.7567 120.073C26.328 121.019 26.6335 122.106 26.6335 123.239C26.6335 124.307 26.3584 125.331 25.8493 126.237H136.545C137.413 126.237 138.116 126.94 138.116 127.807C138.116 137.846 129.949 146.014 119.909 146.014ZM15.7537 121.022C15.8294 121.011 15.9051 121.005 15.9808 121.005C16.3941 121.005 16.7946 121.169 17.091 121.465C17.4418 121.816 17.6064 122.311 17.5345 122.802C17.396 123.754 17.7025 124.685 18.3759 125.359C19.5451 126.528 21.4465 126.528 22.6151 125.359C23.1817 124.793 23.4935 124.04 23.4935 123.239C23.4935 122.453 23.193 121.714 22.6465 121.151C22.6211 121.129 22.5969 121.107 22.5736 121.085C22.2684 120.792 22.0938 120.39 22.089 119.967C22.0843 119.545 22.2505 119.138 22.5491 118.84L30.3609 111.028C30.359 111.027 30.3574 111.025 30.3555 111.023C30.1212 110.834 29.8913 110.639 29.6655 110.438C29.6391 110.414 29.6112 110.392 29.5848 110.369C29.3408 110.149 29.1011 109.923 28.8675 109.689C28.6357 109.457 28.4118 109.22 28.1938 108.978C28.163 108.944 28.1341 108.908 28.1037 108.873C27.9096 108.655 27.7208 108.433 27.538 108.207C27.5352 108.203 27.5321 108.2 27.5293 108.196L19.7172 116.008C19.4189 116.306 19.0194 116.471 18.5901 116.468C18.1676 116.463 17.765 116.289 17.4726 115.983C17.4497 115.959 17.4271 115.935 17.4057 115.91C16.2349 114.772 14.3568 114.782 13.1979 115.941C12.6316 116.508 12.3201 117.26 12.3201 118.061C12.3201 118.861 12.6316 119.614 13.1979 120.181C13.8713 120.854 14.8009 121.159 15.7537 121.022ZM119.909 142.874C127.687 142.874 134.106 136.95 134.894 129.377H3.22198C4.00997 136.949 10.4297 142.874 18.2072 142.874H34.5096H81.0595C81.927 142.874 82.6298 143.576 82.6298 144.444C82.6298 145.311 81.927 146.014 81.0595 146.014H34.5869C30.1957 146.336 26.6568 149.666 25.9432 153.891H112.174C111.46 149.666 107.921 146.336 103.53 146.014H94.3391C93.4716 146.014 92.7688 145.311 92.7688 144.444C92.7688 143.576 93.4716 142.874 94.3391 142.874H103.607H119.909ZM88.2943 142.874H86.7447C85.8773 142.874 85.1744 143.576 85.1744 144.444C85.1744 145.311 85.8773 146.014 86.7447 146.014H88.2943C89.1617 146.014 89.8646 145.311 89.8646 144.444C89.8646 143.576 89.1617 142.874 88.2943 142.874ZM18.6029 63.184C19.4525 63.3501 20.2791 62.7948 20.4452 61.944C24.9706 38.7749 45.4155 21.959 69.0582 21.959C92.7009 21.959 113.146 38.7749 117.671 61.9437C117.818 62.6931 118.475 63.2132 119.21 63.2132C119.31 63.2132 119.412 63.2038 119.513 63.1836C120.365 63.0175 120.92 62.1928 120.753 61.3414C115.941 36.7018 94.1996 18.8184 69.0582 18.8184C43.9168 18.8184 22.1757 36.7018 17.3627 61.3414C17.1966 62.1928 17.7518 63.0175 18.6029 63.184ZM40.4084 63.1243C41.2281 63.4113 42.1232 62.9811 42.4105 62.1629C46.3828 50.8541 57.0918 43.2563 69.0582 43.2563C81.0247 43.2563 91.7333 50.8541 95.7059 62.1629C95.9329 62.809 96.5394 63.2132 97.1876 63.2132C97.3604 63.2132 97.5359 63.1846 97.708 63.1243C98.5262 62.8366 98.9568 61.9403 98.6694 61.1221C94.2552 48.5574 82.3557 40.1157 69.0582 40.1157C55.7608 40.1157 43.8612 48.5574 39.4473 61.1221C39.16 61.9406 39.5902 62.8366 40.4084 63.1243ZM69.0582 29.0581C88.6445 29.0581 106.041 42.9096 110.423 61.994C110.589 62.7207 111.236 63.2132 111.951 63.2132C112.068 63.2132 112.186 63.2003 112.304 63.173C113.15 62.9789 113.678 62.1362 113.483 61.2911C111.214 51.4075 105.587 42.4316 97.6396 36.0162C89.5713 29.5041 79.4207 25.9175 69.0582 25.9175C58.6957 25.9175 48.5455 29.5041 40.4768 36.0162C32.5288 42.4316 26.9018 51.4075 24.633 61.2911C24.4389 62.1362 24.9668 62.9789 25.812 63.173C26.6574 63.368 27.4997 62.8394 27.6938 61.994C32.0753 42.9099 49.4719 29.0581 69.0582 29.0581ZM33.0675 63.156C33.9035 63.3875 34.7684 62.8982 35.0002 62.0624C39.2303 46.8102 53.2354 36.1578 69.0579 36.1578C84.8804 36.1578 98.8858 46.8102 103.116 62.0624C103.308 62.7578 103.94 63.2135 104.628 63.2135C104.767 63.2135 104.908 63.195 105.048 63.156C105.884 62.9242 106.374 62.059 106.142 61.2233C101.536 44.6159 86.2868 33.0169 69.0582 33.0169C51.8296 33.0169 36.5799 44.6159 31.9739 61.2233C31.7424 62.059 32.2317 62.9239 33.0675 63.156Z" fill="#2D2424"/>
</svg>
