<svg width="136" height="158" viewBox="0 0 136 158" fill="none" xmlns="http://www.w3.org/2000/svg">
<path d="M134.155 115.698C129.379 110.7 121.584 106.895 112.28 105.196C105.891 113.671 97.2753 120.02 87.6018 123.697C75.4984 128.296 61.7443 128.716 48.64 123.891C38.2326 120.058 29.659 113.442 23.4496 105.195C14.1433 106.894 6.34632 110.699 1.56941 115.698C6.5335 120.893 14.7585 124.8 24.5504 126.393C24.5507 126.393 24.551 126.392 24.5513 126.392C19.4786 131.714 18.2217 138.003 20.7788 143.806C30.5694 145.389 41.1992 144.56 50.1051 141.318C52.6701 147.347 59.1759 152.417 67.8626 155.462C76.549 152.417 83.0548 147.347 85.6198 141.318C94.5257 144.56 105.155 145.389 114.946 143.806C117.503 138.004 116.246 131.714 111.174 126.393C120.966 124.8 129.191 120.893 134.155 115.698Z" fill="#F7E8E6"/>
<path d="M120.065 90.9099C114.275 106.636 102.127 118.177 87.6021 123.697C91.3473 120.653 94.3519 116.598 96.1405 111.741C101.449 97.3253 94.0655 81.3363 79.65 76.0283L67.8622 71.6876L56.0745 67.3473C41.6589 62.0393 34.2759 46.0503 39.5839 31.6348C41.3725 26.7775 44.3772 22.7229 48.1224 19.679C60.2258 15.0795 73.9799 14.6596 87.0842 19.4849C115.915 30.1009 130.681 62.0789 120.065 90.9099Z" fill="white"/>
<path d="M15.6588 52.4656C21.4495 36.7392 33.5969 25.1989 48.122 19.679C44.3768 22.7229 41.3722 26.7774 39.5836 31.6347C34.2756 46.0503 41.6586 62.0392 56.0741 67.3472L67.8619 71.6876L79.6496 76.0279C94.0652 81.3359 101.448 97.3249 96.1402 111.74C94.3516 116.598 91.3469 120.652 87.6017 123.696C75.4983 128.296 61.7442 128.716 48.6399 123.89C19.8089 113.275 5.04286 81.2964 15.6588 52.4656Z" fill="#DEC1B4"/>
<path d="M67.8621 51.0346C72.9356 51.0346 77.0484 46.9217 77.0484 41.8482C77.0484 36.7747 72.9356 32.6619 67.8621 32.6619C62.7886 32.6619 58.6757 36.7747 58.6757 41.8482C58.6757 46.9217 62.7886 51.0346 67.8621 51.0346Z" fill="#DEC1B4"/>
<path d="M67.8621 110.714C72.9356 110.714 77.0484 106.601 77.0484 101.527C77.0484 96.4537 72.9356 92.3408 67.8621 92.3408C62.7886 92.3408 58.6757 96.4537 58.6757 101.527C58.6757 106.601 62.7886 110.714 67.8621 110.714Z" fill="white"/>
<path d="M62.7321 5.12992C62.7321 4.26279 63.4353 3.5596 64.3024 3.5596H66.2917V1.57032C66.2917 0.703189 66.9949 0 67.862 0C68.7292 0 69.4323 0.703189 69.4323 1.57032V3.5596H71.4216C72.2888 3.5596 72.9919 4.26279 72.9919 5.12992C72.9919 5.99705 72.2888 6.70023 71.4216 6.70023H69.4323V8.68951C69.4323 9.55664 68.7292 10.2598 67.862 10.2598C66.9949 10.2598 66.2917 9.55664 66.2917 8.68951V6.70023H64.3024C63.4353 6.70023 62.7321 5.99705 62.7321 5.12992ZM3.47896 101.233H5.46824V103.223C5.46824 104.09 6.17143 104.793 7.03856 104.793C7.90569 104.793 8.60888 104.09 8.60888 103.223V101.233H10.5982C11.4653 101.233 12.1685 100.53 12.1685 99.6631C12.1685 98.796 11.4653 98.0928 10.5982 98.0928H8.60888V96.1035C8.60888 95.2364 7.90569 94.5332 7.03856 94.5332C6.17143 94.5332 5.46824 95.2364 5.46824 96.1035V98.0928H3.47896C2.61183 98.0928 1.90864 98.796 1.90864 99.6631C1.90864 100.53 2.61152 101.233 3.47896 101.233ZM123.556 99.6631C123.556 100.53 124.259 101.233 125.126 101.233H127.115V103.223C127.115 104.09 127.819 104.793 128.686 104.793C129.553 104.793 130.256 104.09 130.256 103.223V101.233H132.245C133.112 101.233 133.815 100.53 133.815 99.6631C133.815 98.796 133.112 98.0928 132.245 98.0928H130.256V96.1035C130.256 95.2364 129.553 94.5332 128.685 94.5332C127.818 94.5332 127.115 95.2364 127.115 96.1035V98.0928H125.126C124.259 98.0928 123.556 98.796 123.556 99.6631ZM135.29 114.613C131.303 110.44 125.458 107.129 118.388 105.037C117.557 104.791 116.683 105.266 116.437 106.098C116.191 106.929 116.666 107.803 117.497 108.049C123.403 109.796 128.349 112.425 131.911 115.697C127.203 120.007 119.97 123.236 111.711 124.703C111.234 124.234 110.733 123.776 110.216 123.338L110.17 123.3C109.93 123.096 109.684 122.894 109.433 122.697L109.331 122.618C109.099 122.436 108.864 122.254 108.622 122.076C108.576 122.041 108.529 122.008 108.481 121.974L108.408 121.921C108.199 121.769 107.99 121.617 107.774 121.468C107.68 121.403 107.584 121.339 107.488 121.276L107.248 121.115C107.127 121.033 107.006 120.951 106.883 120.871C106.578 120.674 106.267 120.479 105.949 120.286C105.207 119.837 104.242 120.075 103.792 120.817C103.343 121.558 103.581 122.524 104.323 122.973C104.613 123.149 104.897 123.327 105.177 123.508C105.282 123.577 105.384 123.646 105.487 123.716L105.752 123.893C105.83 123.945 105.909 123.997 105.986 124.05C106.182 124.186 106.371 124.323 106.56 124.461L106.754 124.6C106.971 124.761 107.183 124.924 107.391 125.088L107.483 125.158C107.709 125.337 107.928 125.517 108.139 125.695L108.173 125.723C108.839 126.288 109.467 126.878 110.038 127.477C114.394 132.047 115.723 137.313 113.828 142.39C104.99 143.679 95.5869 142.943 87.6424 140.354C88.8135 136.563 88.5692 132.47 86.9175 128.894C86.5538 128.107 85.6211 127.763 84.8334 128.127C84.046 128.491 83.7025 129.423 84.0665 130.211C85.557 133.438 85.5975 137.361 84.1748 140.704C81.8796 146.099 75.9504 150.851 67.8626 153.795C59.7743 150.851 53.845 146.099 51.5502 140.704C50.7798 138.892 50.428 136.996 50.5047 135.067C50.5772 133.235 51.1193 131.605 51.6943 130.117C52.0068 129.308 51.6042 128.398 50.7952 128.086C49.9861 127.773 49.0769 128.176 48.7648 128.985C48.1244 130.643 47.4576 132.647 47.3665 134.942C47.2949 136.753 47.5434 138.595 48.0854 140.353C40.1406 142.942 30.7359 143.679 21.8972 142.39C20.0022 137.313 21.331 132.047 25.6883 127.476C26.2583 126.878 26.8852 126.288 27.5463 125.728C27.5535 125.722 27.5761 125.704 27.583 125.698C27.7979 125.516 28.0171 125.337 28.2423 125.158L28.2683 125.138L28.3333 125.088C28.5419 124.925 28.7536 124.761 28.9709 124.601L29.165 124.462C29.354 124.324 29.5434 124.186 29.7391 124.051C29.8154 123.998 29.8942 123.946 29.9731 123.894L30.2378 123.716C30.3405 123.647 30.4426 123.577 30.5491 123.509C30.8276 123.328 31.1119 123.15 31.4027 122.974C32.1445 122.524 32.3816 121.559 31.9325 120.817C31.4831 120.076 30.5183 119.838 29.7758 120.287C29.4583 120.48 29.1477 120.675 28.8434 120.871C28.719 120.952 28.5984 121.034 28.4775 121.115L28.2372 121.276C28.1411 121.34 28.045 121.404 27.9517 121.469C27.7357 121.618 27.5262 121.77 27.3177 121.922L27.2438 121.974C27.1964 122.008 27.149 122.042 27.1031 122.076C26.8613 122.255 26.6261 122.436 26.3701 122.637L26.2938 122.696C26.0422 122.895 25.797 123.096 25.5636 123.293C25.5558 123.3 25.5291 123.321 25.5212 123.328C24.9955 123.773 24.492 124.234 24.0146 124.703C15.7554 123.236 8.5222 120.008 3.81407 115.697C7.3432 112.456 12.2332 109.842 18.0638 108.094C18.8945 107.845 19.3659 106.97 19.1171 106.139C18.8681 105.308 17.9937 104.836 17.1618 105.085C10.1735 107.181 4.38943 110.475 0.435057 114.613C-0.145019 115.22 -0.145019 116.176 0.435057 116.783C5.2663 121.838 12.7168 125.574 21.6099 127.442C17.6856 132.698 16.843 138.767 19.3423 144.44C19.5571 144.927 20.0034 145.272 20.5289 145.357C23.8143 145.888 27.1854 146.149 30.5475 146.149C37.0631 146.149 43.5428 145.166 49.2946 143.26C52.3269 149.016 58.8085 153.953 67.3438 156.944C67.5118 157.003 67.6877 157.032 67.8633 157.032C68.0388 157.032 68.2147 157.003 68.3827 156.944C76.9177 153.953 83.3994 149.016 86.4317 143.26C92.1837 145.166 98.6626 146.149 105.179 146.149C108.54 146.149 111.912 145.888 115.197 145.357C115.722 145.272 116.169 144.927 116.384 144.44C118.883 138.767 118.041 132.698 114.117 127.442C123.01 125.575 130.46 121.838 135.292 116.783C135.87 116.176 135.87 115.22 135.29 114.613ZM48.0974 125.364C54.481 127.715 61.1659 128.9 67.8671 128.9C71.9734 128.9 76.0864 128.455 80.1391 127.56C80.9861 127.373 81.521 126.535 81.3341 125.688C81.1469 124.841 80.309 124.306 79.4623 124.493C69.3834 126.718 58.9131 126 49.1825 122.417C21.2104 112.117 6.83285 80.9804 17.1326 53.0083C21.6296 40.7953 30.3399 30.7073 41.5686 24.4561C41.5055 24.5469 41.4455 24.6399 41.3836 24.7313C41.3007 24.8531 41.2178 24.975 41.1368 25.0981C41.0419 25.2422 40.9493 25.3883 40.8569 25.5343C40.7784 25.6584 40.6996 25.7824 40.6227 25.9077C40.5316 26.0566 40.4433 26.207 40.3548 26.3575C40.2813 26.4825 40.2071 26.6072 40.1352 26.7334C40.0476 26.8879 39.9631 27.044 39.878 27.2001C39.8099 27.3251 39.7408 27.4495 39.6745 27.5754C39.5897 27.7368 39.5087 27.9002 39.4267 28.0632C39.3648 28.1866 39.3014 28.3088 39.2411 28.4331C39.1572 28.6059 39.0778 28.7808 38.9974 28.9554C38.9437 29.0719 38.8881 29.1875 38.8359 29.305C38.7483 29.5019 38.6654 29.7013 38.5822 29.9004C38.5413 29.9978 38.4986 30.0939 38.4588 30.1916C38.3378 30.4896 38.2213 30.7899 38.1098 31.0923C35.3976 38.4577 35.716 46.4387 39.0065 53.5648C42.2969 60.6906 48.1655 66.1088 55.5309 68.8211L79.1065 77.5021C85.6848 79.9245 90.9259 84.7636 93.8649 91.1278C96.8039 97.492 97.0882 104.62 94.6658 111.198C93.0386 115.617 90.2532 119.518 86.6107 122.478C86.5312 122.543 86.4606 122.615 86.3971 122.691C86.3742 122.718 86.3569 122.748 86.3362 122.776C86.2991 122.827 86.2624 122.878 86.2319 122.933C86.2121 122.968 86.1971 123.005 86.1801 123.042C86.1565 123.093 86.1336 123.144 86.1157 123.198C86.1025 123.237 86.0931 123.276 86.0831 123.316C86.0695 123.37 86.0579 123.424 86.0504 123.479C86.0447 123.519 86.041 123.56 86.0385 123.601C86.035 123.656 86.0347 123.711 86.0372 123.767C86.0391 123.808 86.0416 123.849 86.0469 123.89C86.0535 123.945 86.0648 123.998 86.0774 124.052C86.0871 124.094 86.0962 124.135 86.1094 124.176C86.1264 124.229 86.1487 124.28 86.1716 124.331C86.1892 124.37 86.2049 124.41 86.2263 124.449C86.2319 124.459 86.2351 124.47 86.2407 124.48C86.2806 124.55 86.3261 124.614 86.3748 124.675C86.3776 124.679 86.3795 124.683 86.3824 124.687C86.3896 124.696 86.3987 124.702 86.4062 124.711C86.4596 124.773 86.5174 124.831 86.579 124.884C86.595 124.898 86.6101 124.912 86.6264 124.925C86.6961 124.98 86.7699 125.03 86.8472 125.072C86.8657 125.082 86.8849 125.09 86.9037 125.1C86.9693 125.132 87.0369 125.16 87.1066 125.183C87.1264 125.19 87.1458 125.197 87.1656 125.203C87.2504 125.228 87.3368 125.245 87.425 125.255C87.4414 125.257 87.458 125.257 87.4743 125.258C87.5168 125.262 87.5588 125.266 87.6015 125.266C87.6267 125.266 87.6518 125.261 87.6769 125.26C87.72 125.257 87.762 125.254 87.8051 125.248C87.8578 125.241 87.91 125.231 87.9624 125.218C88.0076 125.208 88.0519 125.196 88.0965 125.181C88.1172 125.174 88.1383 125.172 88.1587 125.164C103.65 119.277 115.816 106.989 121.538 91.4519C132.436 61.8545 117.223 28.9089 87.6257 18.0109C77.0201 14.1055 65.6256 13.4181 54.6748 16.0232C53.8309 16.2239 53.3099 17.0706 53.5106 17.9142C53.7113 18.7581 54.558 19.2782 55.4015 19.0784C65.749 16.6171 76.5167 17.2666 86.5403 20.9578C100.091 25.9473 110.887 35.9151 116.94 49.0244C122.993 62.1337 123.579 76.8162 118.59 90.3665C114.093 102.58 105.383 112.668 94.1539 118.919C94.217 118.828 94.2767 118.735 94.3388 118.644C94.4214 118.522 94.5041 118.401 94.5848 118.278C94.6812 118.131 94.7754 117.983 94.8693 117.834C94.9459 117.713 95.0229 117.592 95.0979 117.47C95.1915 117.317 95.282 117.163 95.3727 117.008C95.4437 116.887 95.516 116.766 95.5854 116.644C95.6761 116.485 95.7634 116.323 95.8511 116.162C95.9161 116.042 95.9823 115.923 96.0458 115.803C96.134 115.634 96.2188 115.464 96.3043 115.294C96.3627 115.178 96.4227 115.062 96.4795 114.944C96.5662 114.765 96.6488 114.584 96.732 114.403C96.7829 114.292 96.836 114.183 96.8856 114.071C96.9751 113.87 97.0599 113.666 97.1447 113.463C97.1836 113.369 97.2251 113.277 97.2631 113.184C97.384 112.885 97.5008 112.585 97.6123 112.282C100.325 104.917 100.006 96.9357 96.7157 89.81C93.4252 82.6839 87.5566 77.2659 80.1912 74.5537L56.6157 65.8727C50.0373 63.4503 44.7962 58.6112 41.8572 52.247C38.9182 45.8828 38.634 38.7548 41.0564 32.1765C41.5648 30.7955 42.1864 29.4655 42.9119 28.1988C44.5079 25.4118 46.6071 22.9323 49.1118 20.8965C49.1146 20.8943 49.1162 20.8915 49.119 20.8893C49.1953 20.8265 49.2638 20.7574 49.3254 20.6839C49.3483 20.6563 49.3662 20.6261 49.3869 20.5976C49.424 20.5467 49.4604 20.4961 49.4906 20.4418C49.5103 20.4066 49.5251 20.3699 49.5421 20.3334C49.5659 20.2816 49.5889 20.2301 49.6068 20.1764C49.6196 20.1374 49.6294 20.0982 49.6391 20.0586C49.6526 20.0043 49.6642 19.9503 49.6721 19.895C49.6777 19.8548 49.6812 19.8149 49.6837 19.7744C49.6872 19.7185 49.6875 19.6629 49.685 19.607C49.6831 19.5662 49.6806 19.526 49.6755 19.4851C49.6686 19.4299 49.6576 19.3755 49.6448 19.3209C49.635 19.2801 49.6262 19.2395 49.6134 19.199C49.5961 19.1456 49.5735 19.0938 49.5502 19.042C49.533 19.0031 49.5173 18.9638 49.4965 18.9258C49.4909 18.9154 49.4877 18.9041 49.4818 18.8938C49.4529 18.8438 49.4174 18.8005 49.3841 18.7549C49.3681 18.733 49.3571 18.7088 49.3398 18.6877C49.3367 18.684 49.3326 18.6811 49.3294 18.6774C49.2647 18.5995 49.1947 18.5276 49.1181 18.4647C49.1055 18.4544 49.0914 18.4475 49.0785 18.4377C49.0141 18.3881 48.9472 18.3419 48.8762 18.303C48.8436 18.2851 48.809 18.2722 48.7754 18.2568C48.7211 18.232 48.6671 18.2075 48.6105 18.1887C48.5732 18.1764 48.5355 18.1686 48.4975 18.1592C48.4416 18.1453 48.3857 18.1328 48.3282 18.1252C48.2889 18.1199 48.25 18.1177 48.2107 18.1155C48.1542 18.1124 48.098 18.1114 48.0408 18.1142C47.9991 18.1164 47.9579 18.1205 47.9165 18.1259C47.8631 18.1328 47.8106 18.1428 47.7575 18.1557C47.713 18.1664 47.6693 18.178 47.6256 18.1928C47.6052 18.1997 47.5842 18.2025 47.5635 18.21C32.0726 24.0981 19.9067 36.3858 14.1854 51.9232C3.28707 81.5202 18.5 114.466 48.0974 125.364ZM67.862 52.605C61.9306 52.605 57.1053 47.7798 57.1053 41.8484C57.1053 35.917 61.9306 31.0917 67.862 31.0917C73.7934 31.0917 78.6187 35.917 78.6187 41.8484C78.6187 47.7798 73.7934 52.605 67.862 52.605ZM67.862 49.4644C72.0617 49.4644 75.4781 46.048 75.4781 41.8484C75.4781 37.6487 72.0617 34.2323 67.862 34.2323C63.6624 34.2323 60.246 37.6487 60.246 41.8484C60.246 46.048 63.6624 49.4644 67.862 49.4644ZM67.862 90.7704C73.7934 90.7704 78.6187 95.5956 78.6187 101.527C78.6187 107.458 73.7934 112.284 67.862 112.284C61.9306 112.284 57.1053 107.458 57.1053 101.527C57.1053 95.5956 61.9306 90.7704 67.862 90.7704ZM67.862 93.911C63.6624 93.911 60.246 97.3274 60.246 101.527C60.246 105.727 63.6624 109.143 67.862 109.143C72.0617 109.143 75.4781 105.727 75.4781 101.527C75.4781 97.3274 72.0617 93.911 67.862 93.911Z" fill="#2D2424"/>
</svg>
