<svg width="147" height="158" viewBox="0 0 147 158" fill="none" xmlns="http://www.w3.org/2000/svg">
<path d="M35.9121 135.231L46.9464 124.641L36.4362 114.13L26.313 121.938L35.9121 135.231Z" fill="white"/>
<path d="M110.925 135.231L99.8907 124.641L110.401 114.13L120.524 121.938L110.925 135.231Z" fill="white"/>
<path d="M57.9626 116.017L45.7508 103.805C44.8121 102.866 43.2905 102.866 42.3517 103.805L40.8411 105.316C39.9023 106.254 39.9023 107.776 40.8411 108.715C39.9023 107.776 38.3807 107.776 37.442 108.715L35.9313 110.225C34.9926 111.164 34.9926 112.686 35.9313 113.624L48.1431 125.836C49.0818 126.775 50.6034 126.775 51.5422 125.836L53.0528 124.325C53.9916 123.387 53.9916 121.865 53.0528 120.926C53.9916 121.865 55.5132 121.865 56.4519 120.926L57.9626 119.416C58.9013 118.477 58.9013 116.955 57.9626 116.017Z" fill="#F6E8E6"/>
<path d="M110.906 110.226L109.396 108.715C108.457 107.776 106.935 107.776 105.997 108.715C106.935 107.776 106.935 106.255 105.997 105.316L104.486 103.805C103.547 102.867 102.026 102.867 101.087 103.805L88.8752 116.017C87.9364 116.956 87.9364 118.477 88.8752 119.416L90.3858 120.927C91.3246 121.866 92.8462 121.866 93.7849 120.927C92.8462 121.866 92.8462 123.387 93.7849 124.326L95.2956 125.837C96.2343 126.775 97.756 126.775 98.6947 125.837L110.906 113.625C111.845 112.686 111.845 111.165 110.906 110.226Z" fill="#F6E8E6"/>
<path d="M91.8505 99.2586C89.6947 97.5313 88.7997 94.6705 89.5873 92.0226L90.354 89.4451C92.4783 82.3027 92.0122 74.6395 89.038 67.8074L79.5728 46.0641C78.8228 44.3418 77.1231 43.2278 75.2444 43.2278H73.4187H71.5934C69.7146 43.2278 68.0149 44.3418 67.2653 46.0641L57.8 67.8074C54.8258 74.6395 54.3597 82.3027 56.4841 89.4451L57.2507 92.0226C58.0381 94.6705 57.1433 97.5313 54.9876 99.2586L47.3354 105.389L56.7281 114.782L69.6185 101.891C72.0516 99.4578 73.4187 96.1573 73.4187 92.7154C73.4187 96.157 74.7858 99.4578 77.2195 101.891L90.1099 114.782L99.5026 105.389L91.8505 99.2586Z" fill="white"/>
<path d="M90.1099 114.782L77.2195 101.891C74.7858 99.4576 73.4187 96.1572 73.4187 92.7153C73.4187 96.1572 72.0515 99.4576 69.6179 101.891L56.7274 114.782L57.9623 116.017C58.8863 116.941 58.8985 118.429 58.0035 119.37C62.846 120.994 68.0293 121.875 73.4183 121.875C78.8074 121.875 83.9907 120.994 88.8332 119.37C87.9381 118.429 87.9504 116.941 88.8744 116.017L90.1099 114.782Z" fill="#DEC1B4"/>
<path d="M73.4187 24.9617C46.6567 24.9617 24.9618 46.6566 24.9618 73.4186C24.9618 86.9855 30.5399 99.2481 39.5246 108.044C40.0064 108.122 40.4693 108.344 40.8405 108.715C39.9018 107.776 39.9018 106.255 40.8405 105.316L42.3512 103.805C43.2899 102.866 44.8116 102.866 45.7503 103.805L47.3344 105.389L54.9866 99.2588C57.1423 97.5314 58.0374 94.6706 57.2497 92.0227L56.4831 89.4452C54.3588 82.3028 54.8249 74.6396 57.799 67.8075L67.2643 46.0642C68.0143 44.3419 69.714 43.2279 71.5924 43.2279H73.4187H75.244C77.1227 43.2279 78.8225 44.3419 79.5724 46.0642L89.0377 67.8075C92.0119 74.6396 92.478 82.3028 90.3536 89.4452L89.587 92.0227C88.7996 94.6706 89.6944 97.5314 91.8501 99.2588L99.5023 105.389L101.086 103.805C102.025 102.866 103.547 102.866 104.486 103.805L105.996 105.316C106.935 106.255 106.935 107.776 105.996 108.715C106.367 108.344 106.83 108.122 107.312 108.044C116.297 99.2478 121.875 86.9855 121.875 73.4186C121.876 46.6566 100.181 24.9617 73.4187 24.9617Z" fill="#DEC1B4"/>
<path d="M78.5486 142.518C78.5486 143.385 77.8454 144.088 76.9783 144.088H74.989V146.078C74.989 146.945 74.2858 147.648 73.4187 147.648C72.5515 147.648 71.8483 146.945 71.8483 146.078V144.088H69.8591C68.9919 144.088 68.2887 143.385 68.2887 142.518C68.2887 141.651 68.9919 140.948 69.8591 140.948H71.8483V138.958C71.8483 138.091 72.5515 137.388 73.4187 137.388C74.2858 137.388 74.989 138.091 74.989 138.958V140.948H76.9783C77.8454 140.948 78.5486 141.651 78.5486 142.518ZM131.344 105.725H129.355V103.736C129.355 102.868 128.652 102.165 127.785 102.165C126.918 102.165 126.214 102.868 126.214 103.736V105.725H124.225C123.358 105.725 122.655 106.428 122.655 107.295C122.655 108.162 123.358 108.865 124.225 108.865H126.214V110.855C126.214 111.722 126.918 112.425 127.785 112.425C128.652 112.425 129.355 111.722 129.355 110.855V108.865H131.344C132.211 108.865 132.914 108.162 132.914 107.295C132.914 106.428 132.211 105.725 131.344 105.725ZM22.6126 105.725H20.6233V103.736C20.6233 102.868 19.9201 102.165 19.053 102.165C18.1859 102.165 17.4827 102.868 17.4827 103.736V105.725H15.4937C14.6266 105.725 13.9234 106.428 13.9234 107.295C13.9234 108.162 14.6266 108.865 15.4937 108.865H17.4827V110.855C17.4827 111.722 18.1859 112.425 19.053 112.425C19.9201 112.425 20.6233 111.722 20.6233 110.855V108.865H22.6126C23.4797 108.865 24.1829 108.162 24.1829 107.295C24.1829 106.428 23.4797 105.725 22.6126 105.725ZM83.48 119.222C76.9428 120.652 69.9932 120.659 63.4531 119.243C62.6064 119.06 61.7697 119.598 61.586 120.445C61.4026 121.293 61.9406 122.129 62.7886 122.312C66.2605 123.064 69.8368 123.445 73.4187 123.445C77.0357 123.445 80.6465 123.056 84.1512 122.29C84.9985 122.105 85.5349 121.268 85.3496 120.42C85.1643 119.573 84.3267 119.037 83.48 119.222ZM33.0737 102.994C33.5869 103.693 34.5702 103.844 35.2687 103.33C35.9678 102.817 36.1183 101.834 35.6048 101.135C29.6696 93.053 26.5321 83.469 26.5321 73.4184C26.5321 47.5649 47.5653 26.5318 73.4187 26.5318C99.2721 26.5318 120.305 47.5649 120.305 73.4184C120.305 83.469 117.168 93.0533 111.233 101.135C110.719 101.834 110.869 102.817 111.569 103.33C111.849 103.536 112.174 103.635 112.497 103.635C112.98 103.635 113.456 103.413 113.764 102.994C120.098 94.3692 123.446 84.1421 123.446 73.418C123.446 45.8329 101.004 23.3908 73.4187 23.3908C45.8335 23.3908 23.3915 45.8335 23.3915 73.4184C23.3915 84.1424 26.7397 94.3695 33.0737 102.994ZM35.9122 152.486C35.0451 152.486 34.3419 153.19 34.3419 154.057V155.462C34.3419 156.329 35.0451 157.032 35.9122 157.032C36.7794 157.032 37.4826 156.329 37.4826 155.462V154.057C37.4826 153.19 36.7794 152.486 35.9122 152.486ZM110.925 152.486C110.058 152.486 109.355 153.19 109.355 154.057V155.462C109.355 156.329 110.058 157.032 110.925 157.032C111.792 157.032 112.495 156.329 112.495 155.462V154.057C112.495 153.19 111.793 152.486 110.925 152.486ZM121.768 122.898C121.238 123.584 120.252 123.712 119.565 123.182L110.535 116.217L102.134 124.618L111.554 133.658C112.152 134.233 112.495 135.038 112.495 135.867V149.219C112.495 150.086 111.792 150.789 110.925 150.789C110.058 150.789 109.355 150.086 109.355 149.219V135.901L99.9131 126.839L99.805 126.947C99.0544 127.698 98.0566 128.111 96.9951 128.111C95.9336 128.111 94.9358 127.698 94.1852 126.947L92.6742 125.436C92.0351 124.797 91.6639 123.992 91.5521 123.159C90.7189 123.047 89.9139 122.676 89.2751 122.037L87.7645 120.526C86.2149 118.976 86.2149 116.455 87.7645 114.906L87.8891 114.781L76.1092 103.001C75.0085 101.9 74.1055 100.653 73.419 99.3051C72.7321 100.653 71.8295 101.9 70.7287 103.001L58.9488 114.781L59.0735 114.906C60.6231 116.455 60.6231 118.976 59.0735 120.526L57.5628 122.036C56.9237 122.675 56.1191 123.046 55.2859 123.159C55.1741 123.992 54.8029 124.797 54.1637 125.436L52.6528 126.946C51.9022 127.697 50.9044 128.11 49.8428 128.11C48.7813 128.11 47.7835 127.697 47.0329 126.946L46.9249 126.838L37.4832 135.9V149.218C37.4832 150.085 36.78 150.788 35.9129 150.788C35.0457 150.788 34.3425 150.085 34.3425 149.218V135.866C34.3425 135.037 34.6855 134.232 35.2838 133.658L44.7035 124.617L38.9806 118.894L36.3029 116.217L27.273 123.181C26.5864 123.711 25.6003 123.584 25.0704 122.897C24.5406 122.21 24.6681 121.224 25.3547 120.694L34.1802 113.887C33.3187 112.371 33.5294 110.406 34.8209 109.115L36.3318 107.604C36.9709 106.964 37.7756 106.594 38.6088 106.481C38.7206 105.648 39.0918 104.843 39.7309 104.204L41.2416 102.693C42.7912 101.144 45.3122 101.144 46.8618 102.693L47.4516 103.283L54.0061 98.0322C55.6712 96.698 56.354 94.5146 55.746 92.4695L54.9794 89.8923C52.753 82.4065 53.2435 74.3404 56.3606 67.1801L65.8262 45.4365C66.8258 43.1404 69.0899 41.6568 71.5943 41.6568H75.2453C77.7496 41.6568 80.0137 43.1404 81.0134 45.4369L90.4789 67.1801C93.596 74.3408 94.0866 82.4065 91.8602 89.8923L91.0935 92.4698C90.4852 94.515 91.1683 96.6983 92.8334 98.0325L99.388 103.284L99.9775 102.694C101.527 101.145 104.048 101.145 105.598 102.694L107.108 104.205C107.747 104.844 108.119 105.649 108.23 106.482C109.064 106.594 109.869 106.965 110.507 107.604L112.018 109.115C113.31 110.407 113.521 112.371 112.659 113.888L121.485 120.695C122.17 121.225 122.297 122.211 121.768 122.898ZM51.9421 122.037L39.7303 109.825C39.573 109.668 39.3638 109.581 39.1411 109.581C38.9185 109.581 38.7093 109.668 38.5519 109.825L37.041 111.336C36.7162 111.661 36.7162 112.19 37.041 112.514L37.546 113.019C37.5463 113.02 37.5466 113.02 37.5469 113.02L43.1473 118.62L49.2534 124.726C49.568 125.041 50.117 125.041 50.4314 124.726L51.9424 123.215C52.2671 122.891 52.2671 122.362 51.9421 122.037ZM56.8518 117.127L44.6401 104.915C44.4777 104.753 44.2641 104.672 44.0509 104.672C43.8376 104.672 43.6241 104.753 43.4617 104.915L41.9511 106.426C41.626 106.751 41.626 107.28 41.9511 107.605L54.1628 119.816C54.4775 120.131 55.0265 120.131 55.3412 119.816L56.8518 118.306C57.1769 117.981 57.1769 117.452 56.8518 117.127ZM90.1099 112.561L97.1525 105.518L90.8687 100.484C88.202 98.3475 87.1081 94.8504 88.0823 91.575L88.8489 88.9975C90.8646 82.22 90.4205 74.9171 87.5983 68.4342L78.1328 46.6909C77.6321 45.5411 76.4984 44.798 75.2443 44.798H71.5933C70.3393 44.798 69.2055 45.5411 68.7049 46.6909L59.2393 68.4345C56.4171 74.9174 55.9731 82.2203 57.9887 88.9978L58.7553 91.575C59.7296 94.8504 58.6357 98.3475 55.969 100.484L49.6852 105.518L56.7278 112.561L68.5077 100.781C70.6621 98.6267 71.8487 95.7624 71.8487 92.7157V72.5453C71.8487 71.4429 70.952 70.5462 69.8496 70.5462C68.7476 70.5462 67.8509 71.4429 67.8509 72.5453V81.9508C67.8509 83.507 67.2451 84.9696 66.1446 86.0698L64.7348 87.4799C64.1214 88.0933 63.1274 88.0933 62.5141 87.4799C61.9007 86.8666 61.9007 85.8726 62.5141 85.2592L63.9242 83.849C64.4314 83.3418 64.7106 82.6679 64.7106 81.9508V72.5453C64.7106 69.7115 67.0162 67.4056 69.85 67.4056C70.5591 67.4056 71.2337 67.5516 71.849 67.8123V53.524C71.849 52.6569 72.5522 51.9537 73.4193 51.9537C74.2864 51.9537 74.9896 52.6569 74.9896 53.524V67.8123C75.6045 67.5516 76.2795 67.4056 76.9886 67.4056C79.8224 67.4056 82.128 69.7111 82.128 72.5453V81.9508C82.128 82.6679 82.4072 83.3421 82.9141 83.849L84.3242 85.2592C84.9376 85.8726 84.9376 86.8666 84.3242 87.4799C84.0177 87.7865 83.6157 87.94 83.2137 87.94C82.8117 87.94 82.41 87.7868 82.1032 87.4802L80.693 86.0701C79.5928 84.9699 78.9867 83.507 78.9867 81.9511V72.5456C78.9867 71.4432 78.09 70.5466 76.988 70.5466C75.8856 70.5466 74.989 71.4432 74.989 72.5456V92.716C74.989 95.7627 76.1755 98.6273 78.33 100.781L90.1099 112.561ZM91.4962 119.816C91.8109 120.131 92.3598 120.131 92.6745 119.816L104.886 107.605C105.211 107.28 105.211 106.751 104.886 106.426L103.376 104.915C103.213 104.753 103 104.671 102.786 104.671C102.573 104.671 102.36 104.753 102.197 104.915L89.9855 117.127C89.6605 117.452 89.6605 117.981 89.9855 118.305L91.4962 119.816ZM97.5843 124.726L109.796 112.515C110.121 112.19 110.121 111.661 109.796 111.336L108.285 109.826C107.971 109.511 107.422 109.511 107.107 109.826L94.8953 122.037C94.5702 122.362 94.5702 122.891 94.8953 123.216L96.4062 124.726C96.7206 125.041 97.2696 125.041 97.5843 124.726ZM73.4187 46.2829C72.5515 46.2829 71.8483 46.9861 71.8483 47.8533V48.8938C71.8483 49.7609 72.5515 50.4641 73.4187 50.4641C74.2858 50.4641 74.989 49.7609 74.989 48.8938V47.8533C74.989 46.9858 74.2858 46.2829 73.4187 46.2829ZM73.4187 20.6214C74.2858 20.6214 74.989 19.9182 74.989 19.0511V9.06199C74.989 8.19486 74.2858 7.49168 73.4187 7.49168C72.5515 7.49168 71.8483 8.19486 71.8483 9.06199V19.0511C71.8483 19.9182 72.5515 20.6214 73.4187 20.6214ZM73.4187 4.28509C74.2858 4.28509 74.989 3.5819 74.989 2.71477V1.57032C74.989 0.703189 74.2858 0 73.4187 0C72.5515 0 71.8483 0.703189 71.8483 1.57032V2.71477C71.8483 3.58221 72.5515 4.28509 73.4187 4.28509ZM111.862 36.5454C112.264 36.5454 112.666 36.3921 112.973 36.0856L120.036 29.0223C120.649 28.4089 120.649 27.4149 120.036 26.8016C119.423 26.1882 118.429 26.1885 117.815 26.8016L110.752 33.8649C110.139 34.4782 110.139 35.4722 110.752 36.0856C111.059 36.3921 111.46 36.5454 111.862 36.5454ZM123.414 24.9938C123.816 24.9938 124.218 24.8406 124.524 24.5337L125.334 23.7244C125.947 23.111 125.947 22.1167 125.334 21.5036C124.72 20.8903 123.726 20.8906 123.113 21.5039L122.304 22.3133C121.69 22.9266 121.691 23.921 122.304 24.534C122.61 24.8406 123.012 24.9938 123.414 24.9938ZM137.775 71.848H127.786C126.919 71.848 126.216 72.5512 126.216 73.4184C126.216 74.2855 126.919 74.9887 127.786 74.9887H137.775C138.642 74.9887 139.345 74.2855 139.345 73.4184C139.345 72.5512 138.642 71.848 137.775 71.848ZM145.267 71.848H144.122C143.255 71.848 142.552 72.5512 142.552 73.4184C142.552 74.2855 143.255 74.9887 144.122 74.9887H145.267C146.134 74.9887 146.837 74.2855 146.837 73.4184C146.837 72.5512 146.134 71.848 145.267 71.848ZM20.6217 73.4184C20.6217 72.5512 19.9185 71.848 19.0514 71.848H9.06231C8.19518 71.848 7.49199 72.5512 7.49199 73.4184C7.49199 74.2855 8.19518 74.9887 9.06231 74.9887H19.0514C19.9185 74.9887 20.6217 74.2858 20.6217 73.4184ZM2.71508 71.848H1.57032C0.703189 71.848 0 72.5512 0 73.4184C0 74.2855 0.703189 74.9887 1.57032 74.9887H2.71508C3.58221 74.9887 4.2854 74.2855 4.2854 73.4184C4.2854 72.5512 3.58221 71.848 2.71508 71.848ZM33.8649 36.0853C34.1717 36.3918 34.5734 36.5451 34.9754 36.5451C35.3774 36.5451 35.7791 36.3918 36.0859 36.085C36.6993 35.4716 36.6993 34.4776 36.0859 33.8642L29.0226 26.8009C28.4093 26.1876 27.4152 26.1879 26.8019 26.8009C26.1885 27.4143 26.1885 28.4083 26.8019 29.0217L33.8649 36.0853ZM22.3133 24.5337C22.6198 24.8406 23.0218 24.9938 23.4238 24.9938C23.8255 24.9938 24.2275 24.8406 24.534 24.534C25.1474 23.921 25.1474 22.9266 24.534 22.3133L23.7247 21.5039C23.1119 20.8906 22.1173 20.8906 21.5039 21.5036C20.8906 22.1167 20.8906 23.111 21.5039 23.7244L22.3133 24.5337Z" fill="#2D2424"/>
</svg>
