<svg width="220" height="220" viewBox="0 0 220 220" fill="none" xmlns="http://www.w3.org/2000/svg">
<path d="M170.495 135.006H49.505C43.8144 135.006 39.201 139.62 39.201 145.31C39.201 151.001 43.8144 155.614 49.505 155.614H53.4914L60.8966 212.483C61.2926 215.525 63.8833 217.8 66.9505 217.8H153.05C156.117 217.8 158.708 215.525 159.104 212.483L166.509 155.614H170.495C176.186 155.614 180.799 151.001 180.799 145.31C180.799 139.62 176.186 135.006 170.495 135.006Z" fill="#F6E8E6"/>
<path d="M138.244 192.495C141.952 192.495 144.958 189.489 144.958 185.781C144.958 182.074 141.952 179.068 138.244 179.068C134.536 179.068 131.53 182.074 131.53 185.781C131.53 189.489 134.536 192.495 138.244 192.495Z" fill="#AAB1BA"/>
<path d="M110 192.495C113.708 192.495 116.713 189.489 116.713 185.781C116.713 182.074 113.708 179.068 110 179.068C106.292 179.068 103.286 182.074 103.286 185.781C103.286 189.489 106.292 192.495 110 192.495Z" fill="#AAB1BA"/>
<path d="M81.7561 192.495C85.4638 192.495 88.4696 189.489 88.4696 185.781C88.4696 182.074 85.4638 179.068 81.7561 179.068C78.0483 179.068 75.0425 182.074 75.0425 185.781C75.0425 189.489 78.0483 192.495 81.7561 192.495Z" fill="#AAB1BA"/>
<path d="M147.395 97.8124C148.818 94.5586 149.628 90.9933 149.685 87.2713L150.179 54.9845L127.125 74.1003C127.767 68.79 126.983 63.2728 124.623 58.1473L110 26.3982L95.3775 58.1468C93.0169 63.2724 92.2333 68.7895 92.8752 74.0999L69.821 54.9841L70.3155 87.2709C70.3728 90.9928 71.1828 94.5586 72.6049 97.812L45.8256 87.9216L59.0203 123.647C60.6289 128.003 63.1013 131.839 66.1905 135.006H92.518C92.5171 135.004 92.5166 135.002 92.5162 134.999C92.5224 135.02 92.5276 135.041 92.5338 135.062H127.466C127.476 135.031 127.483 134.999 127.493 134.967C127.489 134.98 127.486 134.993 127.482 135.006H153.809C156.898 131.84 159.371 128.003 160.98 123.647L174.174 87.9221L147.395 97.8124Z" fill="#DEC1B4"/>
<path d="M173.331 217.8C173.331 219.015 172.346 220 171.131 220H153.05H66.9505H48.8696C47.6547 220 46.6696 219.015 46.6696 217.8C46.6696 216.585 47.6547 215.6 48.8696 215.6H59.6254C59.1634 214.738 58.847 213.784 58.715 212.767L52.3728 164.065C52.2158 162.86 53.0654 161.756 54.2706 161.599C55.4718 161.443 56.5792 162.291 56.7363 163.497L63.0785 212.199C63.331 214.138 64.9956 215.6 66.9509 215.6H153.05C155.005 215.6 156.67 214.138 156.923 212.199L163.265 163.497C163.421 162.292 164.526 161.442 165.73 161.599C166.935 161.755 167.785 162.859 167.628 164.065L161.286 212.767C161.154 213.784 160.838 214.738 160.376 215.6H171.132C172.346 215.6 173.331 216.585 173.331 217.8ZM40.169 215.6H38.2924C37.0776 215.6 36.0924 216.585 36.0924 217.8C36.0924 219.015 37.0776 220 38.2924 220H40.169C41.3838 220 42.369 219.015 42.369 217.8C42.369 216.585 41.3838 215.6 40.169 215.6ZM181.708 215.6H179.831C178.616 215.6 177.631 216.585 177.631 217.8C177.631 219.015 178.616 220 179.831 220H181.708C182.923 220 183.908 219.015 183.908 217.8C183.908 216.585 182.923 215.6 181.708 215.6ZM128.736 129.353C128.773 129.354 128.81 129.355 128.847 129.355C130.011 129.355 130.984 128.44 131.042 127.264C131.316 121.737 130.24 116.165 127.93 111.15L111.998 76.5578C111.639 75.7781 110.859 75.2783 110 75.2783C109.141 75.2783 108.361 75.7781 108.002 76.5578L92.0701 111.149C89.7601 116.164 88.6843 121.737 88.958 127.264C89.0178 128.477 90.0421 129.415 91.264 129.353C92.4775 129.292 93.4125 128.26 93.3522 127.046C93.1138 122.225 94.0518 117.364 96.0662 112.99L110 82.7372L123.934 112.991C125.948 117.364 126.886 122.225 126.647 127.046C126.587 128.26 127.522 129.293 128.736 129.353ZM105.171 9.229H107.8V11.858C107.8 13.0733 108.785 14.058 110 14.058C111.215 14.058 112.2 13.0733 112.2 11.858V9.229H114.829C116.044 9.229 117.029 8.24428 117.029 7.029C117.029 5.81372 116.044 4.829 114.829 4.829H112.2V2.2C112.2 0.98472 111.215 0 110 0C108.785 0 107.8 0.98472 107.8 2.2V4.829H105.171C103.956 4.829 102.971 5.81372 102.971 7.029C102.971 8.24428 103.956 9.229 105.171 9.229ZM76.927 33.4752H79.556V36.1038C79.556 37.319 80.5412 38.3038 81.756 38.3038C82.9709 38.3038 83.956 37.319 83.956 36.1038V33.4752H86.585C87.7999 33.4752 88.785 32.4905 88.785 31.2752C88.785 30.0599 87.7999 29.0752 86.585 29.0752H83.956V26.4462C83.956 25.2309 82.9709 24.2462 81.756 24.2462C80.5412 24.2462 79.556 25.2309 79.556 26.4462V29.0752H76.927C75.7122 29.0752 74.727 30.0599 74.727 31.2752C74.727 32.4905 75.7122 33.4752 76.927 33.4752ZM133.416 33.4752H136.045V36.1038C136.045 37.319 137.029 38.3038 138.245 38.3038C139.46 38.3038 140.445 37.319 140.445 36.1038V33.4752H143.073C144.288 33.4752 145.273 32.4905 145.273 31.2752C145.273 30.0599 144.288 29.0752 143.073 29.0752H140.445V26.4462C140.445 25.2309 139.46 24.2462 138.245 24.2462C137.029 24.2462 136.045 25.2309 136.045 26.4462V29.0752H133.416C132.2 29.0752 131.216 30.0599 131.216 31.2752C131.216 32.4905 132.2 33.4752 133.416 33.4752ZM81.5514 157.814C82.7663 157.814 83.7514 156.83 83.7514 155.614C83.7514 154.399 82.7663 153.414 81.5514 153.414H78.8212C77.6064 153.414 76.6212 154.399 76.6212 155.614C76.6212 156.83 77.6064 157.814 78.8212 157.814H81.5514ZM49.5049 157.814H69.8215C71.0363 157.814 72.0215 156.83 72.0215 155.614C72.0215 154.399 71.0363 153.414 69.8215 153.414H49.5049C45.0367 153.414 41.4014 149.779 41.4014 145.31C41.4014 140.842 45.0367 137.207 49.5049 137.207H170.496C174.964 137.207 178.6 140.842 178.6 145.31C178.6 149.779 174.964 153.414 170.496 153.414H91.1157C89.9009 153.414 88.9157 154.399 88.9157 155.614C88.9157 156.83 89.9009 157.814 91.1157 157.814H170.496C177.39 157.814 183 152.205 183 145.31C183 138.416 177.39 132.807 170.496 132.807H49.5049C42.6106 132.807 37.0014 138.416 37.0014 145.31C37.0014 152.205 42.6101 157.814 49.5049 157.814ZM56.9568 124.41C57.5494 126.014 58.2798 127.607 59.1286 129.144C59.5299 129.87 60.2814 130.28 61.0562 130.28C61.4157 130.28 61.7805 130.192 62.118 130.006C63.1814 129.419 63.5678 128.08 62.9804 127.017C62.2385 125.673 61.601 124.283 61.0844 122.885L49.5445 91.6406L80.7889 103.18C82.7073 103.889 84.5549 104.793 86.2797 105.868C86.6418 106.094 87.0435 106.201 87.4408 106.201C88.1752 106.201 88.8933 105.833 89.3104 105.164C89.9528 104.133 89.6378 102.776 88.6064 102.133C86.6282 100.901 84.5113 99.865 82.3135 99.0528L74.2672 96.081C73.151 93.2549 72.5622 90.2845 72.5156 87.2375L72.0941 59.7269L93.2744 77.2886C94.5402 78.3385 95.715 79.5282 96.7662 80.8245C97.5309 81.7683 98.9165 81.9135 99.8607 81.1479C100.805 80.3827 100.949 78.9972 100.184 78.0538C98.9512 76.5327 97.5714 75.1357 96.0829 73.9015L94.9714 72.9797C94.546 68.2136 95.371 63.4212 97.376 59.0669L110 31.6571L122.624 59.0674C124.63 63.422 125.455 68.2145 125.029 72.9806L123.918 73.902C122.429 75.1366 121.049 76.5332 119.816 78.0542C119.051 78.998 119.196 80.3832 120.14 81.1483C121.083 81.913 122.468 81.7687 123.234 80.8249C124.285 79.5291 125.46 78.3394 126.726 77.2891L147.906 59.7274L147.485 87.2379C147.439 90.2845 146.85 93.2549 145.733 96.0815L137.687 99.0532C135.488 99.8655 133.369 100.903 131.39 102.136C130.359 102.779 130.044 104.136 130.687 105.167C131.103 105.836 131.821 106.204 132.556 106.204C132.953 106.204 133.355 106.096 133.717 105.87C135.444 104.795 137.292 103.89 139.211 103.181L148.157 99.8769C148.157 99.8769 148.158 99.8765 148.159 99.876L170.456 91.641L158.915 122.885C158.399 124.284 157.761 125.674 157.019 127.017C156.432 128.081 156.818 129.419 157.882 130.006C158.219 130.192 158.584 130.281 158.943 130.281C159.718 130.281 160.47 129.87 160.871 129.144C161.719 127.607 162.45 126.015 163.043 124.41L176.238 88.6851C176.535 87.8794 176.337 86.9744 175.729 86.3672C175.122 85.7591 174.217 85.5615 173.412 85.859L150.967 94.1481C151.536 91.9191 151.848 89.632 151.883 87.3052L152.378 55.0185C152.391 54.16 151.903 53.3724 151.129 53.0011C150.354 52.6297 149.435 52.7437 148.774 53.2915L129.508 69.2657C129.342 65.1182 128.371 61.0289 126.619 57.2268L111.997 25.4782C111.638 24.6985 110.858 24.1987 109.999 24.1987C109.14 24.1987 108.36 24.6985 108.001 25.4782L93.3782 57.2268C91.6274 61.0289 90.6555 65.1182 90.4896 69.2652L71.2246 53.291C70.5642 52.7437 69.6446 52.6293 68.8693 53.0006C68.0949 53.372 67.6074 54.1596 67.6206 55.018L68.1152 87.3052C68.1508 89.632 68.4628 91.9191 69.0317 94.1477L46.5873 85.8585C45.7816 85.5611 44.8761 85.7586 44.2694 86.3667C43.6622 86.9739 43.4637 87.879 43.7612 88.6846L56.9568 124.41ZM138.244 176.868C143.158 176.868 147.157 180.866 147.157 185.781C147.157 190.696 143.158 194.695 138.244 194.695C133.329 194.695 129.33 190.696 129.33 185.781C129.33 180.866 133.329 176.868 138.244 176.868ZM138.244 181.268C135.755 181.268 133.73 183.293 133.73 185.781C133.73 188.27 135.755 190.295 138.244 190.295C140.732 190.295 142.757 188.27 142.757 185.781C142.757 183.293 140.733 181.268 138.244 181.268ZM110 176.868C114.915 176.868 118.914 180.866 118.914 185.781C118.914 190.696 114.915 194.694 110 194.694C105.085 194.694 101.087 190.696 101.087 185.781C101.087 180.866 105.085 176.868 110 176.868ZM110 181.268C107.511 181.268 105.487 183.293 105.487 185.781C105.487 188.27 107.511 190.295 110 190.295C112.489 190.295 114.514 188.27 114.514 185.781C114.514 183.293 112.489 181.268 110 181.268ZM81.7565 176.868C86.6713 176.868 90.67 180.866 90.67 185.781C90.67 190.696 86.6713 194.695 81.7565 194.695C76.8417 194.695 72.843 190.696 72.843 185.781C72.843 180.866 76.8412 176.868 81.7565 176.868ZM77.2425 185.781C77.2425 188.269 79.2674 190.294 81.756 190.294C84.2447 190.294 86.2696 188.269 86.2696 185.781C86.2696 183.292 84.2447 181.267 81.756 181.267C79.2674 181.267 77.2425 183.292 77.2425 185.781Z" fill="#1C1D21"/>
</svg>
