<svg width="27" height="27" viewBox="0 0 27 27" fill="none" xmlns="http://www.w3.org/2000/svg">
<path d="M19.6639 6.28129C19.4045 6.28129 19.151 6.3582 18.9353 6.5023C18.7197 6.6464 18.5516 6.85122 18.4523 7.09085C18.3531 7.33048 18.3271 7.59417 18.3777 7.84856C18.4283 8.10295 18.5532 8.33663 18.7366 8.52003C18.92 8.70344 19.1537 8.82834 19.4081 8.87894C19.6625 8.92955 19.9261 8.90357 20.1658 8.80432C20.4054 8.70506 20.6102 8.53697 20.7543 8.32131C20.8984 8.10564 20.9753 7.85209 20.9753 7.59271C20.9753 7.2449 20.8372 6.91133 20.5912 6.66539C20.3453 6.41945 20.0117 6.28129 19.6639 6.28129ZM24.6911 8.926C24.6698 8.01925 24.5 7.12213 24.1883 6.27036C23.9105 5.54157 23.478 4.88164 22.9206 4.336C22.3795 3.77583 21.718 3.34606 20.9863 3.07921C20.1367 2.75809 19.2386 2.58438 18.3306 2.56557C17.1722 2.5 16.8006 2.5 13.8281 2.5C10.8555 2.5 10.4839 2.5 9.32549 2.56557C8.41749 2.58438 7.51937 2.75809 6.66985 3.07921C5.93947 3.34877 5.27857 3.77816 4.73549 4.336C4.17532 4.87716 3.74555 5.53862 3.4787 6.27036C3.15758 7.11988 2.98387 8.018 2.96506 8.926C2.89949 10.0844 2.89949 10.456 2.89949 13.4286C2.89949 16.4011 2.89949 16.7727 2.96506 17.9311C2.98387 18.8391 3.15758 19.7373 3.4787 20.5868C3.74555 21.3185 4.17532 21.98 4.73549 22.5211C5.27857 23.079 5.93947 23.5084 6.66985 23.7779C7.51937 24.0991 8.41749 24.2728 9.32549 24.2916C10.4839 24.3571 10.8555 24.3571 13.8281 24.3571C16.8006 24.3571 17.1722 24.3571 18.3306 24.2916C19.2386 24.2728 20.1367 24.0991 20.9863 23.7779C21.718 23.5111 22.3795 23.0813 22.9206 22.5211C23.4804 21.9775 23.9133 21.317 24.1883 20.5868C24.5 19.735 24.6698 18.8379 24.6911 17.9311C24.6911 16.7727 24.7566 16.4011 24.7566 13.4286C24.7566 10.456 24.7566 10.0844 24.6911 8.926ZM22.7239 17.8C22.716 18.4937 22.5903 19.181 22.3523 19.8327C22.1779 20.3083 21.8976 20.7381 21.5327 21.0895C21.1782 21.4507 20.7494 21.7304 20.2759 21.9091C19.6243 22.1471 18.9369 22.2728 18.2432 22.2807C17.1503 22.3354 16.746 22.3463 13.8718 22.3463C10.9976 22.3463 10.5932 22.3463 9.50035 22.2807C8.78004 22.2942 8.0628 22.1833 7.3802 21.9529C6.92752 21.765 6.51833 21.486 6.17806 21.1332C5.81533 20.7821 5.53857 20.352 5.36935 19.8764C5.10253 19.2154 4.95455 18.5125 4.9322 17.8C4.9322 16.7071 4.86663 16.3028 4.86663 13.4286C4.86663 10.5544 4.86663 10.15 4.9322 9.05714C4.9371 8.34794 5.06657 7.64511 5.3147 6.98071C5.5071 6.51943 5.80241 6.10824 6.17806 5.77857C6.51009 5.40281 6.92043 5.10438 7.3802 4.90429C8.04636 4.6639 8.74846 4.53827 9.45663 4.53271C10.5495 4.53271 10.9538 4.46714 13.8281 4.46714C16.7023 4.46714 17.1066 4.46714 18.1995 4.53271C18.8932 4.54067 19.5805 4.66631 20.2322 4.90429C20.7288 5.0886 21.1746 5.38825 21.5327 5.77857C21.8908 6.11427 22.1707 6.5247 22.3523 6.98071C22.5952 7.64619 22.721 8.34873 22.7239 9.05714C22.7786 10.15 22.7895 10.5544 22.7895 13.4286C22.7895 16.3028 22.7786 16.7071 22.7239 17.8ZM13.8281 7.82221C12.7197 7.82437 11.6368 8.15502 10.7163 8.77236C9.7958 9.38971 9.07892 10.2661 8.65626 11.2907C8.2336 12.3153 8.12414 13.4422 8.34169 14.529C8.55925 15.6158 9.09406 16.6137 9.87856 17.3967C10.6631 18.1797 11.662 18.7126 12.7493 18.928C13.8365 19.1434 14.9632 19.0318 15.987 18.6071C17.0108 18.1825 17.8857 17.4639 18.5013 16.5422C19.1168 15.6204 19.4453 14.5369 19.4453 13.4286C19.4468 12.691 19.3024 11.9604 19.0205 11.2789C18.7386 10.5973 18.3247 9.97821 17.8026 9.45718C17.2806 8.93615 16.6607 8.52348 15.9786 8.24289C15.2965 7.9623 14.5656 7.81933 13.8281 7.82221ZM13.8281 17.0678C13.1083 17.0678 12.4047 16.8543 11.8062 16.4545C11.2078 16.0546 10.7413 15.4862 10.4659 14.8212C10.1904 14.1563 10.1184 13.4245 10.2588 12.7186C10.3992 12.0127 10.7458 11.3642 11.2547 10.8553C11.7637 10.3463 12.4121 9.9997 13.1181 9.85928C13.824 9.71886 14.5557 9.79093 15.2207 10.0664C15.8857 10.3418 16.4541 10.8083 16.854 11.4067C17.2538 12.0052 17.4673 12.7088 17.4673 13.4286C17.4673 13.9065 17.3731 14.3797 17.1903 14.8212C17.0074 15.2628 16.7393 15.664 16.4014 16.0019C16.0634 16.3398 15.6623 16.6079 15.2207 16.7908C14.7792 16.9737 14.306 17.0678 13.8281 17.0678Z" fill="white"/>
</svg>
