<svg width="137" height="158" viewBox="0 0 137 158" fill="none" xmlns="http://www.w3.org/2000/svg">
<path d="M116.915 108.512H94.7856C93.3685 108.512 92.22 107.363 92.22 105.946V97.6305C92.22 90.6711 86.5781 85.0293 79.6188 85.0293H68.4315H57.2446C50.2853 85.0293 44.6434 90.6711 44.6434 97.6305V105.946C44.6434 107.363 43.4949 108.512 42.0778 108.512H19.948C18.1785 108.512 16.6321 109.843 16.5115 111.609C16.379 113.545 17.9022 115.16 19.8098 115.174L30.8479 115.214C34.0428 115.226 37.2086 115.826 40.1862 116.984L51.8047 121.502V135.527H68.4319H85.059V121.502L96.6775 116.983C99.6554 115.825 102.821 115.226 106.016 115.214L117.054 115.174C118.962 115.16 120.484 113.544 120.352 111.608C120.231 109.843 118.685 108.512 116.915 108.512Z" fill="white"/>
<path d="M35.681 108.511H19.8346C17.9949 108.511 16.5031 110.003 16.5031 111.843C16.5031 113.673 17.9792 115.161 19.8092 115.174L30.8473 115.214C32.4732 115.22 34.0909 115.38 35.681 115.687V108.511Z" fill="white"/>
<path d="M68.4318 85.0292C78.8877 85.0292 87.3639 76.553 87.3639 66.0971C87.3639 55.6412 78.8877 47.165 68.4318 47.165C57.9759 47.165 49.4998 55.6412 49.4998 66.0971C49.4998 76.553 57.9759 85.0292 68.4318 85.0292Z" fill="white"/>
<path d="M57.2444 85.0293H68.4307C57.9752 85.029 49.4996 76.5527 49.4996 66.0972C49.4996 55.6414 57.9758 47.1651 68.4316 47.1651C78.8875 47.1651 87.3637 55.6414 87.3637 66.0972C87.3637 76.5527 78.8881 85.029 68.4326 85.0293H79.6186C86.5779 85.0293 92.2198 90.6711 92.2198 97.6305V98.1201C101.991 90.8495 108.322 79.2128 108.322 66.0972C108.322 44.0666 90.4623 26.207 68.4316 26.207C46.401 26.207 28.5415 44.0666 28.5415 66.0972C28.5415 79.2128 34.8717 90.8492 44.6432 98.1198V97.6305C44.6432 90.6711 50.285 85.0293 57.2444 85.0293Z" fill="#F7E8E6"/>
<path d="M100.847 155.462H36.0171C30.8809 155.462 26.717 151.298 26.717 146.162V144.826C26.717 139.69 30.8809 135.526 36.0171 135.526H100.846C105.983 135.526 110.146 139.69 110.146 144.826V146.162C110.147 151.298 105.983 155.462 100.847 155.462Z" fill="#DEC1B4"/>
<path d="M80.4091 135.526H56.4542V155.462H80.4091V135.526Z" fill="white"/>
<path d="M101.182 108.511H117.028C118.868 108.511 120.36 110.003 120.36 111.843C120.36 113.673 118.884 115.161 117.054 115.174L106.016 115.214C104.39 115.22 102.772 115.38 101.182 115.687V108.511Z" fill="white"/>
<path d="M9.37951 135.526C9.37951 134.659 10.0827 133.956 10.9498 133.956H12.8264V132.079C12.8264 131.212 13.5296 130.509 14.3967 130.509C15.2638 130.509 15.967 131.212 15.967 132.079V133.956H17.8435C18.7107 133.956 19.4139 134.659 19.4139 135.526C19.4139 136.393 18.7107 137.097 17.8435 137.097H15.967V138.973C15.967 139.84 15.2638 140.544 14.3967 140.544C13.5296 140.544 12.8264 139.84 12.8264 138.973V137.097H10.9498C10.0824 137.097 9.37951 136.394 9.37951 135.526ZM124.037 133.956V132.079C124.037 131.212 123.334 130.509 122.467 130.509C121.6 130.509 120.897 131.212 120.897 132.079V133.956H119.02C118.153 133.956 117.45 134.659 117.45 135.526C117.45 136.393 118.153 137.097 119.02 137.097H120.897V138.973C120.897 139.84 121.6 140.544 122.467 140.544C123.334 140.544 124.037 139.84 124.037 138.973V137.097H125.914C126.781 137.097 127.484 136.393 127.484 135.526C127.484 134.659 126.781 133.956 125.914 133.956H124.037ZM39.974 94.0891C40.6157 93.5056 40.6625 92.5122 40.0789 91.8709C33.6516 84.8051 30.1118 75.652 30.1118 66.0975C30.1118 44.968 47.3021 27.7777 68.4317 27.7777C89.5612 27.7777 106.752 44.968 106.752 66.0975C106.752 75.652 103.212 84.8054 96.7847 91.8709C96.2012 92.5125 96.248 93.5056 96.8896 94.0891C97.1905 94.363 97.5686 94.4977 97.9455 94.4977C98.3723 94.4977 98.7979 94.3246 99.1075 93.9839C106.062 86.3389 109.892 76.4353 109.892 66.0972C109.892 43.2359 91.293 24.6367 68.4317 24.6367C45.5703 24.6367 26.9712 43.2359 26.9712 66.0972C26.9712 76.4353 30.8012 86.3389 37.7558 93.9839C38.3393 94.6258 39.3324 94.6726 39.974 94.0891ZM3.79892 153.891H1.57032C0.703189 153.891 0 154.594 0 155.462C0 156.329 0.703189 157.032 1.57032 157.032H3.79892C4.66604 157.032 5.36923 156.329 5.36923 155.462C5.36923 154.594 4.66604 153.891 3.79892 153.891ZM129.063 155.462C129.063 156.329 128.36 157.032 127.493 157.032H100.846H97.9621H38.9012H36.0171H9.37072C8.50359 157.032 7.8004 156.329 7.8004 155.462C7.8004 154.594 8.50359 153.891 9.37072 153.891H28.3832C26.3867 151.919 25.1468 149.183 25.1468 146.161V144.826C25.1468 138.832 30.0232 133.956 36.0171 133.956H100.846C106.84 133.956 111.717 138.832 111.717 144.826V146.161C111.717 149.183 110.477 151.919 108.48 153.891H127.493C128.36 153.891 129.063 154.594 129.063 155.462ZM38.9012 153.891H54.8839V140.929C54.8839 140.062 55.5871 139.359 56.4542 139.359C57.3213 139.359 58.0245 140.062 58.0245 140.929V143.924H78.8388V137.097H36.0171C31.755 137.097 28.2874 140.565 28.2874 144.827V146.162C28.2874 150.424 31.755 153.892 36.0171 153.892H38.9012V153.891ZM100.846 153.891C105.108 153.891 108.576 150.424 108.576 146.161V144.826C108.576 140.564 105.108 137.097 100.846 137.097H81.9794V149.911C81.9794 150.778 81.2765 151.481 80.4091 151.481C79.5417 151.481 78.8388 150.778 78.8388 149.911V147.064H58.0245V153.891H97.9624H100.846ZM135.293 153.891H133.064C132.197 153.891 131.494 154.594 131.494 155.462C131.494 156.329 132.197 157.032 133.064 157.032H135.293C136.161 157.032 136.864 156.329 136.864 155.462C136.864 154.594 136.16 153.891 135.293 153.891ZM26.4511 100.478C29.0986 100.478 31.2525 102.632 31.2525 105.28C31.2525 105.864 31.1422 106.422 30.95 106.941H42.0776C42.6266 106.941 43.0729 106.495 43.0729 105.946V97.6305C43.0729 89.8163 49.4302 83.459 57.2444 83.459H57.5462C51.775 79.8275 47.9293 73.4048 47.9293 66.0972C47.9293 54.7922 57.1266 45.5948 68.4317 45.5948C79.7367 45.5948 88.9341 54.7922 88.9341 66.0972C88.9341 73.4048 85.088 79.8275 79.3171 83.459H79.6186C87.4328 83.459 93.7901 89.8163 93.7901 97.6305V105.946C93.7901 106.495 94.2367 106.941 94.7854 106.941H105.913C105.721 106.423 105.611 105.865 105.611 105.28C105.611 102.632 107.764 100.478 110.412 100.478C113.059 100.478 115.213 102.632 115.213 105.28C115.213 105.864 115.103 106.422 114.911 106.941H116.915C119.546 106.941 121.743 108.944 121.919 111.502C122.012 112.869 121.552 114.173 120.624 115.175C119.709 116.162 118.412 116.735 117.066 116.745L106.021 116.785C104.503 116.791 102.999 116.936 101.522 117.218C101.508 117.221 101.493 117.225 101.479 117.228C100.04 117.505 98.6257 117.911 97.2467 118.448L86.6291 122.577V130.515C86.6291 131.382 85.9263 132.085 85.0588 132.085C84.1914 132.085 83.4885 131.382 83.4885 130.515V121.502C83.4885 121.501 83.4888 121.499 83.4888 121.498V100.401C83.4888 99.5334 84.1917 98.8302 85.0591 98.8302C85.9266 98.8302 86.6294 99.5334 86.6294 100.401V119.206L96.1082 115.52C97.2561 115.074 98.426 114.709 99.6119 114.421V110.082H94.7857C92.505 110.082 90.6498 108.226 90.6498 105.946V97.6302C90.6498 91.5477 85.7014 86.5993 79.6189 86.5993H57.2447C51.1622 86.5993 46.2139 91.5477 46.2139 97.6302V105.946C46.2139 108.226 44.3584 110.082 42.0779 110.082H37.2514V114.421C38.4373 114.708 39.6072 115.073 40.7551 115.52L50.2342 119.206V100.401C50.2342 99.5334 50.9374 98.8302 51.8045 98.8302C52.6716 98.8302 53.3748 99.5334 53.3748 100.401V121.502V122.058V130.514C53.3748 131.381 52.6716 132.084 51.8045 132.084C50.9374 132.084 50.2342 131.381 50.2342 130.514V122.576L39.6169 118.447C38.2379 117.911 36.8237 117.504 35.3849 117.227C35.3702 117.224 35.3557 117.221 35.3413 117.217C33.8639 116.935 32.3608 116.79 30.8417 116.784L19.8036 116.744C18.4512 116.734 17.1542 116.162 16.239 115.174C15.3106 114.173 14.8511 112.868 14.9444 111.501C15.1193 108.944 17.3168 106.941 19.9478 106.941H21.9518C21.7596 106.422 21.6494 105.864 21.6494 105.279C21.6494 102.633 23.8035 100.478 26.4511 100.478ZM108.751 105.28C108.751 106.196 109.496 106.941 110.412 106.941C111.328 106.941 112.073 106.196 112.073 105.28C112.073 104.364 111.328 103.619 110.412 103.619C109.496 103.619 108.751 104.364 108.751 105.28ZM116.915 110.082H102.752V113.855C103.829 113.723 104.915 113.648 106.01 113.644L117.048 113.604C117.533 113.6 117.987 113.4 118.321 113.04C118.654 112.68 118.819 112.21 118.785 111.716C118.724 110.815 117.885 110.082 116.915 110.082ZM68.4317 83.459C78.0049 83.459 85.7934 75.6705 85.7934 66.0972C85.7934 56.5239 78.0049 48.7355 68.4317 48.7355C58.8584 48.7355 51.0699 56.5239 51.0699 66.0972C51.0699 75.6705 58.8584 83.459 68.4317 83.459ZM34.1108 110.082H19.9478C18.9782 110.082 18.1394 110.815 18.0778 111.716C18.0442 112.21 18.2091 112.68 18.5423 113.04C18.8762 113.4 19.3303 113.6 19.8212 113.604L30.853 113.644C31.9475 113.648 33.0335 113.723 34.1108 113.855V110.082ZM24.79 105.28C24.79 106.196 25.535 106.941 26.4508 106.941C27.3666 106.941 28.1115 106.196 28.1115 105.28C28.1115 104.364 27.3666 103.619 26.4508 103.619C25.535 103.619 24.79 104.364 24.79 105.28ZM66.8613 9.31827V19.8689C66.8613 20.7361 67.5645 21.4392 68.4317 21.4392C69.2988 21.4392 70.002 20.7361 70.002 19.8689V9.31827C70.002 8.45114 69.2991 7.74795 68.4317 7.74795C67.5642 7.74795 66.8613 8.45114 66.8613 9.31827ZM68.4317 4.45939C69.2988 4.45939 70.002 3.7562 70.002 2.88907V1.57032C70.002 0.703189 69.2988 0 68.4317 0C67.5645 0 66.8613 0.703189 66.8613 1.57032V2.88907C66.8613 3.7562 67.5642 4.45939 68.4317 4.45939ZM100.163 33.6507C100.565 33.6507 100.967 33.4974 101.274 33.1909L108.734 25.7306C109.348 25.1172 109.348 24.1229 108.734 23.5099C108.121 22.8968 107.127 22.8968 106.514 23.5099L99.0532 30.9698C98.4398 31.5832 98.4398 32.5775 99.0532 33.1906C99.3597 33.4971 99.7617 33.6507 100.163 33.6507ZM112.17 21.644C112.572 21.644 112.974 21.4908 113.28 21.1842L114.213 20.2518C114.826 19.6387 114.826 18.6444 114.213 18.031C113.6 17.4177 112.606 17.4177 111.993 18.031L111.06 18.9635C110.446 19.5765 110.446 20.5709 111.06 21.1842C111.366 21.4904 111.768 21.644 112.17 21.644ZM112.453 63.8121C112.453 64.6792 113.156 65.3824 114.023 65.3824H124.574C125.441 65.3824 126.144 64.6792 126.144 63.8121C126.144 62.945 125.441 62.2418 124.574 62.2418H114.023C113.156 62.2418 112.453 62.945 112.453 63.8121ZM133.892 63.8121C133.892 62.945 133.189 62.2418 132.322 62.2418H131.003C130.136 62.2418 129.433 62.945 129.433 63.8121C129.433 64.6792 130.136 65.3824 131.003 65.3824H132.322C133.189 65.3824 133.892 64.6792 133.892 63.8121ZM12.2896 65.3824H22.8403C23.7074 65.3824 24.4106 64.6792 24.4106 63.8121C24.4106 62.945 23.7074 62.2418 22.8403 62.2418H12.2896C11.4225 62.2418 10.7193 62.945 10.7193 63.8121C10.7193 64.6792 11.4225 65.3824 12.2896 65.3824ZM5.86043 62.2418H4.54168C3.67455 62.2418 2.97136 62.945 2.97136 63.8121C2.97136 64.6792 3.67455 65.3824 4.54168 65.3824H5.86043C6.72756 65.3824 7.43075 64.6792 7.43075 63.8121C7.43075 62.945 6.72756 62.2418 5.86043 62.2418ZM35.5894 33.1906C35.8962 33.4971 36.2979 33.6504 36.6999 33.6504C37.1019 33.6504 37.5036 33.4971 37.8104 33.1906C38.4238 32.5772 38.4238 31.5829 37.8104 30.9698L30.3502 23.5096C29.7368 22.8965 28.7428 22.8965 28.1294 23.5096C27.5161 24.1229 27.5161 25.1172 28.1294 25.7303L35.5894 33.1906ZM23.5827 21.1842C23.8896 21.4908 24.2913 21.644 24.6933 21.644C25.0953 21.644 25.4969 21.4908 25.8038 21.1842C26.4172 20.5709 26.4172 19.5765 25.8038 18.9635L24.8713 18.031C24.258 17.418 23.264 17.418 22.6506 18.031C22.0372 18.6444 22.0372 19.6387 22.6506 20.2518L23.5827 21.1842Z" fill="#2D2424"/>
</svg>
